<?xml version="1.0" standalone="no"?>
<!DOCTYPE svg PUBLIC "-//W3C//DTD SVG 20010904//EN"
 "http://www.w3.org/TR/2001/REC-SVG-20010904/DTD/svg10.dtd">
<svg version="1.0" xmlns="http://www.w3.org/2000/svg"
 width="640.000000pt" height="640.000000pt" viewBox="0 0 640.000000 640.000000"
 preserveAspectRatio="xMidYMid meet">
<metadata>
Created by potrace 1.14, written by Peter Selinger 2001-2017
</metadata>
<g transform="translate(0.000000,640.000000) scale(0.100000,-0.100000)"
fill="#000000" stroke="none">
<path d="M0 3200 l0 -3200 1833 2 c1430 2 1831 6 1830 15 -2 7 4 10 12 7 8 -4
12 -10 9 -15 -3 -5 557 -9 1355 -9 l1361 0 0 1403 c0 1078 -3 1406 -12 1415
-9 9 -9 12 0 12 9 0 12 112 12 480 l-1 480 -24 0 c-17 0 -25 5 -24 18 0 10 3
12 6 5 2 -7 13 -13 24 -13 18 0 19 10 19 214 l0 215 -52 4 -53 3 53 2 52 2 0
219 0 220 -22 4 -23 4 23 2 22 1 0 439 0 440 -22 4 -23 4 23 2 22 1 0 215 0
214 -57 4 -58 3 58 2 57 2 0 189 0 190 -1410 0 c-936 1 -1410 -2 -1410 -9 0
-5 -5 -10 -11 -10 -5 0 -7 4 -4 10 4 6 -605 10 -1779 10 l-1786 0 0 -3200z
m5418 3183 c-10 -2 -28 -2 -40 0 -13 2 -5 4 17 4 22 1 32 -1 23 -4z m-2635
-10 c-13 -2 -35 -2 -50 0 -16 2 -5 4 22 4 28 0 40 -2 28 -4z m877 0 c-14 -3
-31 -10 -37 -15 -10 -8 -13 -6 -13 6 0 12 9 16 38 15 27 -1 30 -3 12 -6z
m1638 0 c-15 -2 -42 -2 -60 0 -18 2 -6 4 27 4 33 0 48 -2 33 -4z m-2610 -10
c-10 -2 -26 -2 -35 0 -10 3 -2 5 17 5 19 0 27 -2 18 -5z m1060 0 c-10 -2 -26
-2 -35 0 -10 3 -2 5 17 5 19 0 27 -2 18 -5z m1400 0 c-16 -2 -40 -2 -55 0 -16
2 -3 4 27 4 30 0 43 -2 28 -4z m-2546 -16 c-12 -7 -21 -15 -18 -18 2 -2 -18
-3 -45 -3 -28 1 -53 5 -57 9 -4 4 6 5 21 1 21 -5 27 -4 21 5 -5 9 0 10 19 5
14 -3 29 -2 32 4 3 5 16 10 28 10 l22 -1 -23 -12z m1211 6 c-7 -2 -21 -2 -30
0 -10 3 -4 5 12 5 17 0 24 -2 18 -5z m1195 0 c-15 -2 -42 -2 -60 0 -18 2 -6 4
27 4 33 0 48 -2 33 -4z m-2245 -10 c-7 -2 -21 -2 -30 0 -10 3 -4 5 12 5 17 0
24 -2 18 -5z m1017 -9 c0 -2 -7 -4 -15 -4 -8 0 -15 4 -15 10 0 5 7 7 15 4 8
-4 15 -8 15 -10z m173 -9 l29 -12 -25 -5 c-15 -3 -28 -1 -29 3 -2 4 -19 11
-38 14 -19 3 -39 11 -45 17 -13 13 65 1 108 -17z m924 18 c-20 -2 -52 -2 -70
0 -17 2 0 4 38 4 39 0 53 -2 32 -4z m-1042 -13 c8 -13 -15 -13 -35 0 -12 8
-11 10 7 10 12 0 25 -4 28 -10z m898 3 c-18 -2 -48 -2 -65 0 -18 2 -4 4 32 4
36 0 50 -2 33 -4z m-2268 -13 c-3 -5 -19 -10 -34 -10 -16 0 -40 -9 -54 -20
-27 -21 -42 -26 -33 -11 4 5 1 11 -6 13 -6 2 18 11 53 20 79 20 82 20 74 8z
m1188 3 c-7 -2 -21 -2 -30 0 -10 3 -4 5 12 5 17 0 24 -2 18 -5z m930 0 c-18
-2 -48 -2 -65 0 -18 2 -4 4 32 4 36 0 50 -2 33 -4z m-130 -10 c-18 -2 -48 -2
-65 0 -18 2 -4 4 32 4 36 0 50 -2 33 -4z m-333 -16 c30 0 42 -2 27 -4 -22 -4
-27 -8 -22 -24 4 -11 2 -19 -4 -19 -6 0 -11 6 -11 14 0 10 -19 19 -55 26 -30
6 -55 14 -55 17 0 2 15 1 33 -3 17 -4 57 -7 87 -7z m178 6 c-16 -2 -40 -2 -55
0 -16 2 -3 4 27 4 30 0 43 -2 28 -4z m-1982 -20 c-3 -4 -17 -8 -29 -10 -12 -2
-35 -10 -52 -17 -44 -21 -66 -28 -100 -31 -22 -2 -16 2 20 14 28 10 61 22 75
28 45 19 99 29 86 16z m1859 -23 c3 -5 1 -10 -4 -10 -6 0 -11 5 -11 10 0 6 2
10 4 10 3 0 8 -4 11 -10z m103 -31 c23 -7 42 -16 42 -21 0 -5 5 -6 12 -2 6 4
8 3 5 -4 -8 -11 -47 -5 -47 8 0 4 -20 13 -45 19 -25 6 -45 14 -45 17 0 3 8 3
18 0 9 -2 36 -10 60 -17z m-103 1 c13 -6 15 -9 5 -9 -8 0 -22 4 -30 9 -18 12
-2 12 25 0z m-1898 -6 c-3 -3 -12 -4 -19 -1 -8 3 -5 6 6 6 11 1 17 -2 13 -5z
m-182 -12 c-6 -4 -12 -18 -12 -31 -2 -28 -1 -26 -33 -36 l-25 -8 28 27 c25 23
26 27 11 33 -16 6 -16 7 2 14 25 10 42 11 29 1z m-61 -31 c-5 -4 -31 -14 -57
-21 -32 -8 -44 -16 -35 -21 7 -4 10 -10 8 -13 -3 -2 -13 1 -22 8 -16 11 -10
16 45 38 60 24 81 27 61 9z m2371 -3 c7 -7 2 -9 -15 -4 -14 3 -31 6 -38 6 -7
0 -10 5 -7 10 7 12 44 4 60 -12z m43 -17 c11 -6 10 -10 -4 -15 -9 -3 -19 -4
-22 -1 -3 3 1 5 9 5 11 0 11 2 -1 10 -8 5 -10 10 -5 10 6 0 16 -4 23 -9z m-41
-7 c-3 -3 -12 -4 -19 -1 -8 3 -5 6 6 6 11 1 17 -2 13 -5z m-2412 -14 c-3 -5
-12 -10 -18 -10 -7 0 -6 4 3 10 19 12 23 12 15 0z m2511 -4 c21 -21 17 -26
-16 -22 -34 4 -47 12 -36 23 4 4 11 1 16 -7 9 -14 14 -7 11 13 -2 11 9 8 25
-7z m-2616 -11 c-7 -9 -15 -13 -17 -11 -7 7 7 26 19 26 6 0 6 -6 -2 -15z m-45
-5 l20 -9 -20 0 c-11 0 -27 4 -35 9 -13 9 -13 10 0 9 8 0 24 -4 35 -9z m80 0
c3 -5 1 -10 -4 -10 -6 0 -11 5 -11 10 0 6 2 10 4 10 3 0 8 -4 11 -10z m-162
-7 c-13 -2 -33 -2 -45 0 -13 2 -3 4 22 4 25 0 35 -2 23 -4z m2808 -8 c19 -8
27 -14 18 -15 -27 0 -32 -30 -6 -31 12 0 17 -3 10 -5 -6 -3 -26 -1 -45 5 -25
7 -27 9 -10 10 24 1 25 19 2 38 -20 17 -9 16 31 -2z m-2914 -1 c-3 -3 -12 -4
-19 -1 -8 3 -5 6 6 6 11 1 17 -2 13 -5z m168 -14 c3 -5 1 -10 -4 -10 -6 0 -11
5 -11 10 0 6 2 10 4 10 3 0 8 -4 11 -10z m2605 6 c0 -2 -7 -7 -16 -10 -8 -3
-12 -2 -9 4 6 10 25 14 25 6z m-2637 -22 c-3 -8 -12 -13 -20 -10 -8 3 -18 6
-21 7 -8 0 29 17 40 18 4 1 5 -6 1 -15z m82 6 c-3 -5 -11 -10 -16 -10 -6 0 -7
5 -4 10 3 6 11 10 16 10 6 0 7 -4 4 -10z m2765 -11 c0 -5 3 -8 8 -7 12 3 207
-100 251 -134 13 -10 35 -18 49 -18 19 0 22 -3 13 -13 -12 -15 -5 -27 15 -27
16 0 94 -51 94 -61 0 -5 -9 -13 -19 -19 -17 -8 -19 -7 -16 15 2 22 -1 25 -19
20 -15 -5 -17 -4 -7 3 11 8 9 12 -8 22 -17 8 -26 8 -36 0 -9 -7 -15 -8 -20 0
-3 5 -1 10 4 10 6 0 1 11 -11 25 -15 17 -28 23 -42 19 -14 -3 -17 -2 -8 4 17
12 -31 34 -55 25 -16 -6 -16 -5 -4 10 8 10 9 17 3 17 -6 0 -14 -5 -17 -10 -10
-16 -25 -2 -18 16 5 14 3 14 -15 3 -11 -7 -19 -17 -16 -21 3 -4 -2 -5 -11 -2
-13 5 -12 9 7 27 l23 20 -30 -7 c-21 -5 -26 -4 -15 3 13 9 12 12 -5 25 -11 9
-27 13 -35 10 -8 -4 -24 -8 -35 -10 -16 -4 -16 -3 3 5 28 13 29 25 1 16 -14
-5 -19 -3 -15 4 4 6 -3 13 -17 16 -13 4 -24 12 -24 20 0 7 6 11 14 8 7 -3 13
-9 13 -14z m-2900 -19 c-13 -9 -13 -10 0 -11 8 -1 18 -1 21 -1 4 1 15 -8 24
-18 17 -19 17 -20 -3 -20 -12 0 -25 6 -29 14 -4 8 -21 16 -38 18 l-30 4 25 11
c31 14 50 16 30 3z m-74 -46 c-11 -8 -27 -14 -35 -13 -14 0 -14 1 -1 6 8 4 21
12 29 20 7 8 16 11 20 8 3 -4 -3 -13 -13 -21z m2904 16 c-8 -5 -19 -10 -25
-10 -5 0 -3 5 5 10 8 5 20 10 25 10 6 0 3 -5 -5 -10z m-2810 -32 c18 -18 36
-45 42 -60 6 -16 17 -28 28 -28 12 0 20 -10 24 -35 4 -19 12 -35 19 -35 7 0
18 -9 25 -20 7 -12 17 -18 22 -15 5 3 16 -8 24 -24 9 -16 29 -34 46 -39 20 -8
30 -18 30 -31 0 -12 6 -21 13 -21 6 0 3 -6 -8 -12 -19 -12 -19 -12 5 -18 14
-4 24 -12 23 -17 -1 -6 4 -14 12 -17 8 -3 15 -1 15 4 0 6 6 10 14 10 14 0 26
-21 26 -47 0 -32 129 -173 159 -173 14 0 21 -6 21 -20 0 -11 -4 -20 -10 -20
-5 0 -7 -7 -4 -15 4 -8 11 -15 16 -15 6 0 8 6 5 14 -3 8 0 17 7 19 7 3 20 20
29 39 14 27 17 29 17 11 0 -12 -5 -25 -11 -29 -11 -6 -7 -61 8 -101 3 -10 3
-15 -2 -11 -11 10 -38 -20 -29 -33 4 -8 3 -9 -5 -5 -8 5 -18 -6 -29 -33 -10
-25 -24 -41 -34 -41 -9 0 -24 -10 -33 -22 -8 -13 -19 -23 -23 -24 -12 -1 -74
-38 -93 -56 -9 -9 -28 -18 -41 -20 -13 -2 -23 -10 -23 -18 0 -8 -12 -21 -27
-28 -16 -7 -28 -20 -28 -28 0 -9 5 -12 11 -8 6 3 15 0 20 -7 7 -12 10 -12 18
-1 4 8 11 13 15 12 10 -3 69 10 91 20 68 31 138 39 251 28 l113 -11 68 -55
c37 -30 87 -64 111 -75 26 -13 41 -26 38 -34 -3 -7 1 -13 9 -13 8 0 16 -4 16
-10 1 -5 2 -14 3 -18 0 -5 9 -17 19 -27 18 -17 19 -17 46 15 l27 33 26 -34
c81 -106 111 -254 99 -474 -8 -143 -21 -184 -77 -245 -31 -34 -46 -74 -116
-318 -13 -46 -54 -122 -82 -152 -13 -14 -35 -52 -48 -86 -35 -88 -157 -269
-248 -367 -19 -21 -39 -45 -43 -53 -4 -7 -29 -28 -55 -46 -26 -17 -65 -49 -87
-70 -22 -21 -43 -38 -46 -38 -4 0 -29 -17 -56 -38 -66 -53 -131 -89 -174 -96
-23 -4 -43 -16 -58 -36 -27 -37 -66 -39 -161 -9 -43 13 -101 21 -170 23 -144
5 -145 6 -268 126 -47 46 -94 121 -120 192 -22 58 -38 196 -36 303 1 60 -7 88
-35 134 -13 21 -16 21 -26 7 -7 -9 -16 -16 -21 -16 -15 0 -51 -63 -62 -110 -6
-25 -13 -110 -16 -190 -2 -80 -8 -155 -11 -168 -6 -19 -4 -21 11 -16 17 6 17
5 4 -8 -8 -9 -40 -21 -70 -27 -30 -6 -62 -13 -70 -15 -8 -3 -18 -5 -22 -5 -5
-1 -8 -5 -8 -10 0 -10 29 -9 113 4 40 6 47 5 47 -9 0 -10 -9 -16 -22 -16 -22
-1 -22 -1 -5 -14 17 -13 16 -15 -14 -30 -18 -9 -46 -16 -63 -17 -26 0 -28 -2
-11 -9 16 -7 17 -9 3 -9 -9 -1 -20 4 -23 9 -3 6 -26 10 -51 10 -28 0 -44 4
-45 13 0 9 -2 9 -6 0 -7 -18 -43 -16 -43 2 0 19 -16 20 -23 1 -6 -16 -47 -10
-47 6 0 6 -33 8 -81 7 -49 -2 -83 1 -87 7 -4 6 -47 18 -97 26 -49 9 -75 16
-57 17 17 0 32 6 32 11 0 6 -31 10 -72 10 -53 0 -83 6 -116 21 -34 17 -46 19
-52 9 -5 -8 -10 -9 -14 -2 -4 6 -14 8 -24 5 -14 -5 -13 -2 3 11 16 14 17 17 3
12 -12 -3 -15 -1 -11 10 3 8 0 21 -7 29 -9 11 -11 53 -7 163 3 81 8 161 10
177 2 17 9 75 16 130 6 55 17 134 23 175 7 41 11 79 10 84 -2 4 1 13 6 20 10
12 22 55 28 96 11 77 28 150 35 150 5 0 9 9 9 20 0 11 4 28 9 38 9 17 21 47
27 67 11 40 43 118 53 128 6 6 11 19 11 29 0 10 4 26 9 36 5 9 13 28 19 42 5
14 15 38 21 53 6 15 11 37 11 47 0 11 5 20 10 20 6 0 10 8 10 18 0 10 9 24 20
32 11 8 20 20 20 27 0 14 17 48 37 73 18 23 83 141 83 150 0 5 11 21 25 36 14
15 28 38 31 51 4 13 10 23 14 23 5 0 11 9 15 19 8 25 71 105 172 218 12 14 25
34 28 44 4 11 11 19 17 19 12 0 22 11 83 88 22 28 50 56 63 63 12 7 22 20 22
30 0 10 8 20 18 23 11 4 25 18 32 31 7 14 17 25 21 25 4 0 24 16 44 35 21 19
57 46 81 60 24 14 48 34 54 45 6 11 17 20 24 20 7 0 25 14 39 31 15 19 32 29
40 26 9 -3 19 4 26 19 6 13 17 24 24 24 8 0 44 23 81 50 37 28 71 50 76 50 5
0 20 11 33 24 28 28 82 58 100 55 6 -1 25 3 42 10 23 10 26 14 15 21 -9 6 -10
10 -3 10 7 0 26 -15 43 -32z m4498 15 c-15 -2 -42 -2 -60 0 -18 2 -6 4 27 4
33 0 48 -2 33 -4z m-125 -10 c-13 -2 -33 -2 -45 0 -13 2 -3 4 22 4 25 0 35 -2
23 -4z m-135 -10 c-16 -2 -40 -2 -55 0 -16 2 -3 4 27 4 30 0 43 -2 28 -4z
m-115 -10 c-13 -2 -35 -2 -50 0 -16 2 -5 4 22 4 28 0 40 -2 28 -4z m-125 -10
c-16 -2 -40 -2 -55 0 -16 2 -3 4 27 4 30 0 43 -2 28 -4z m-168 -13 c-41 -4
-102 -7 -135 -7 l-60 0 65 7 c36 4 97 7 135 7 l70 0 -75 -7z m-232 -17 c-21
-2 -55 -2 -75 0 -21 2 -4 4 37 4 41 0 58 -2 38 -4z m-140 -10 c-16 -2 -40 -2
-55 0 -16 2 -3 4 27 4 30 0 43 -2 28 -4z m-130 -10 c-15 -2 -42 -2 -60 0 -18
2 -6 4 27 4 33 0 48 -2 33 -4z m-168 -63 c0 -5 -2 -10 -4 -10 -3 0 -8 5 -11
10 -3 6 -1 10 4 10 6 0 11 -4 11 -10z m225 -93 c25 -24 47 -42 49 -40 2 2 22
-13 44 -34 22 -21 43 -38 46 -38 11 0 76 -67 76 -78 0 -7 -7 -3 -16 8 -8 11
-22 19 -30 17 -8 -2 -15 2 -15 8 -1 5 -2 16 -3 23 0 6 -7 12 -14 12 -8 0 -20
9 -28 19 -8 11 -14 14 -14 8 0 -10 -3 -10 -14 0 -9 8 -10 15 -4 19 6 4 -5 12
-25 18 -19 7 -38 18 -41 26 -7 18 -28 20 -24 3 2 -7 -1 -15 -7 -18 -5 -3 -10
10 -10 28 0 23 -7 37 -20 45 -18 9 -19 9 -6 -6 14 -18 12 -20 -13 -11 -13 5
-14 9 -5 20 17 21 25 18 74 -29z m31 -95 c-6 -5 -36 23 -36 34 0 4 9 -1 20
-11 11 -10 18 -20 16 -23z m322 -157 c31 1 39 0 17 -2 -54 -6 -64 -18 -34 -42
55 -43 159 -169 153 -185 -7 -19 -26 -22 -23 -3 3 27 -3 39 -38 74 -21 20 -38
39 -38 43 0 11 -77 80 -89 80 -5 0 -7 3 -3 6 12 12 -17 33 -31 22 -7 -6 -15
-8 -19 -5 -3 4 -13 1 -21 -6 -13 -11 -14 -9 -1 11 8 12 17 22 22 22 4 0 5 5 2
10 -4 6 -10 8 -14 6 -4 -3 -7 3 -8 13 -1 14 6 11 33 -14 32 -30 39 -33 92 -30z
m805 58 c-13 -2 -33 -2 -45 0 -13 2 -3 4 22 4 25 0 35 -2 23 -4z m-100 -10
c-18 -2 -48 -2 -65 0 -18 2 -4 4 32 4 36 0 50 -2 33 -4z m-135 -10 c-15 -2
-42 -2 -60 0 -18 2 -6 4 27 4 33 0 48 -2 33 -4z m-125 -10 c-18 -2 -48 -2 -65
0 -18 2 -4 4 32 4 36 0 50 -2 33 -4z m-130 -10 c-13 -2 -35 -2 -50 0 -16 2 -5
4 22 4 28 0 40 -2 28 -4z m-135 -10 c-16 -2 -40 -2 -55 0 -16 2 -3 4 27 4 30
0 43 -2 28 -4z m-2267 -64 c-5 -13 -10 -19 -10 -12 -1 15 10 45 15 40 3 -2 0
-15 -5 -28z m2019 27 c0 -2 -7 -7 -16 -10 -8 -3 -12 -2 -9 4 6 10 25 14 25 6z
m-2360 -26 c0 -5 -4 -10 -10 -10 -5 0 -10 5 -10 10 0 6 5 10 10 10 6 0 10 -4
10 -10z m2374 2 c3 -5 -1 -9 -9 -9 -8 0 -12 4 -9 9 3 4 7 8 9 8 2 0 6 -4 9 -8z
m-2059 -12 c3 -5 -1 -10 -10 -10 -9 0 -13 5 -10 10 3 6 8 10 10 10 2 0 7 -4
10 -10z m-1001 -54 c-4 -18 -2 -26 4 -22 5 3 12 -3 15 -14 3 -11 1 -18 -4 -14
-5 3 -9 -2 -9 -10 0 -8 5 -18 10 -21 6 -3 10 -1 10 5 0 6 5 8 11 4 8 -4 7 -9
-2 -15 -30 -19 -37 -5 -44 85 -4 43 -3 57 5 46 5 -8 7 -28 4 -44z m266 44 c0
-5 -4 -10 -10 -10 -5 0 -10 5 -10 10 0 6 5 10 10 10 6 0 10 -4 10 -10z m313
-21 c-9 -9 -12 -7 -10 9 1 14 5 18 11 12 7 -7 6 -14 -1 -21z m-437 -9 c1 -16
-3 -27 -7 -24 -11 6 -12 54 -1 54 4 0 7 -13 8 -30z m2965 15 c5 4 6 -1 2 -10
-5 -13 -7 -14 -14 -3 -5 7 -8 18 -8 23 0 6 3 4 6 -3 2 -6 9 -10 14 -7z m-3026
-5 c3 -5 1 -10 -4 -10 -6 0 -11 5 -11 10 0 6 2 10 4 10 3 0 8 -4 11 -10z m782
-20 c9 0 14 -3 10 -6 -11 -11 -47 7 -47 24 1 16 2 15 11 0 5 -10 17 -18 26
-18z m80 8 c-3 -8 -6 -5 -6 6 -1 11 2 17 5 13 3 -3 4 -12 1 -19z m130 -10 c-3
-7 -5 -2 -5 12 0 14 2 19 5 13 2 -7 2 -19 0 -25z m-517 12 c0 -5 -4 -10 -10
-10 -5 0 -10 5 -10 10 0 6 5 10 10 10 6 0 10 -4 10 -10z m445 -17 c-4 -16 -8
-29 -9 -31 -6 -6 -36 11 -36 20 0 6 7 8 14 5 9 -4 17 2 21 14 10 29 18 23 10
-8z m-805 9 c0 -5 18 -28 40 -52 22 -24 40 -47 40 -52 0 -13 -20 -9 -20 5 -1
14 -35 57 -46 57 -8 0 -33 31 -34 43 0 4 5 7 10 7 6 0 10 -4 10 -8z m876 -39
c8 -8 18 -12 23 -8 5 3 12 1 16 -5 4 -6 16 -3 33 7 26 17 26 17 13 0 -19 -24
-6 -34 17 -14 27 24 35 21 17 -6 l-15 -24 47 2 c59 1 73 -3 73 -21 0 -10 8
-13 28 -9 15 3 21 2 15 -1 -7 -3 -13 -10 -13 -15 0 -6 5 -7 10 -4 6 4 18 1 27
-7 14 -11 16 -11 11 4 -4 10 -1 19 9 22 11 5 14 1 10 -13 -4 -15 2 -20 24 -23
16 -3 29 -1 29 3 0 3 9 9 19 12 14 3 18 1 14 -11 -5 -12 -1 -14 20 -10 15 3
27 2 27 -2 0 -13 -36 -18 -55 -7 -14 7 -21 5 -32 -9 -9 -12 -16 -15 -21 -8 -9
14 -31 21 -112 38 -38 8 -77 12 -89 9 -14 -4 -30 6 -55 33 -33 36 -38 38 -57
26 -19 -12 -21 -12 -16 2 5 11 1 16 -13 16 -14 0 -20 -7 -21 -22 -1 -17 -3
-15 -9 9 -4 18 -5 45 -2 60 5 22 7 24 10 9 2 -11 10 -26 18 -33z m-135 -16
c-9 -9 -10 -5 -7 13 6 36 8 37 13 16 3 -10 0 -23 -6 -29z m2209 17 c0 -2 -8 0
-19 5 -10 6 -22 7 -26 3 -5 -4 -5 -1 -1 6 5 9 12 9 27 2 10 -6 19 -13 19 -16z
m-2340 6 c0 -5 -5 -10 -11 -10 -5 0 -7 5 -4 10 3 6 8 10 11 10 2 0 4 -4 4 -10z
m-691 -63 c2 -15 -36 13 -54 40 l-19 28 36 -30 c20 -16 37 -34 37 -38z m4 44
c3 -14 1 -18 -9 -14 -15 6 -18 16 -7 26 9 10 10 9 16 -12z m237 7 c0 -16 -23
-19 -37 -5 -14 13 -13 15 11 14 14 -1 26 -5 26 -9z m55 -8 c-27 -12 -35 -12
-35 0 0 6 12 10 28 9 24 0 25 -1 7 -9z m-110 -20 c3 -5 1 -10 -4 -10 -6 0 -11
5 -11 10 0 6 2 10 4 10 3 0 8 -4 11 -10z m173 -2 c-9 -7 -18 -20 -21 -28 -4
-12 -6 -11 -6 3 -1 20 -31 23 -49 5 -15 -15 -52 -21 -52 -8 0 6 8 10 18 10 15
0 15 2 2 11 -13 10 -13 10 0 6 8 -2 35 -1 60 3 25 4 49 8 54 9 6 0 3 -5 -6
-11z m522 2 c0 -5 -2 -10 -4 -10 -3 0 -8 5 -11 10 -3 6 -1 10 4 10 6 0 11 -4
11 -10z m-848 -50 c6 0 9 -2 6 -5 -13 -14 -35 7 -30 28 l7 22 3 -22 c2 -13 8
-23 14 -23z m3052 25 c-4 -8 -8 -15 -10 -15 -2 0 -4 7 -4 15 0 8 4 15 10 15 5
0 7 -7 4 -15z m-3156 -19 c-10 -7 -15 -16 -11 -19 3 -4 13 -1 21 6 12 10 14 9
11 -2 -7 -19 -21 -23 -39 -11 -13 9 -12 12 4 25 11 8 22 15 25 15 3 0 -2 -7
-11 -14z m846 -18 c21 -11 21 -12 -5 -22 -43 -18 -24 -34 34 -29 28 2 54 6 56
9 6 6 31 -17 31 -28 0 -5 -42 -8 -100 -6 -55 1 -100 6 -100 9 0 4 7 15 16 23
8 9 13 20 9 25 -8 14 -32 3 -38 -18 -8 -31 -65 -32 -117 -3 -75 42 -78 46 -39
54 49 9 228 -1 253 -14z m2476 -103 c41 -51 48 -69 30 -80 -6 -4 -7 1 -3 12 6
16 5 17 -13 3 -17 -14 -18 -14 -6 2 12 15 10 22 -15 53 -24 31 -28 33 -31 15
-2 -11 -8 -20 -14 -20 -5 0 -7 7 -4 15 3 8 9 22 12 30 3 8 2 15 -4 15 -6 0
-15 -12 -20 -27 l-10 -28 1 32 c1 17 5 29 9 27 14 -9 17 14 3 26 -8 7 -15 9
-15 4 0 -4 -6 1 -14 11 -27 38 -4 35 25 -2 16 -21 48 -60 69 -88z m-1930 111
c0 -3 -4 -8 -10 -11 -5 -3 -10 -1 -10 4 0 6 5 11 10 11 6 0 10 -2 10 -4z
m-1450 -29 c0 -7 -4 -6 -10 3 -8 12 -10 12 -10 1 0 -8 -3 -12 -6 -8 -9 9 6 28
17 22 5 -4 9 -12 9 -18z m100 -12 c0 -10 -10 -15 -27 -15 -26 0 -26 1 -7 15
25 19 34 19 34 0z m1520 5 c8 -5 11 -12 8 -16 -10 -9 -38 3 -38 16 0 12 10 13
30 0z m93 -13 c8 -13 17 -34 19 -48 2 -16 9 -23 21 -21 9 2 17 -2 17 -8 0 -5
5 -10 11 -10 6 0 9 7 6 15 -4 8 -2 17 3 20 6 4 10 0 10 -7 0 -8 7 -23 16 -34
14 -18 15 -17 9 19 -6 39 9 52 18 16 3 -12 10 -18 16 -14 6 3 11 1 11 -4 0 -6
18 -11 41 -11 39 0 41 -1 35 -25 -5 -20 -3 -25 12 -25 10 0 26 -6 36 -13 15
-11 14 -14 -18 -25 -19 -7 -38 -22 -41 -32 -4 -11 -10 -20 -15 -20 -38 0 -120
60 -120 87 0 15 -18 17 -39 4 -11 -7 -8 -12 13 -26 50 -33 16 -32 -91 4 -59
20 -114 40 -121 44 -21 14 6 38 34 32 13 -3 35 -7 50 -10 22 -5 24 -4 15 14
-14 25 -14 58 0 66 17 11 20 0 10 -28 -9 -22 -7 -28 9 -37 26 -14 29 -13 22
12 -3 13 -1 19 5 15 16 -10 4 30 -13 44 -8 6 -14 15 -14 20 0 17 18 9 33 -14z
m-320 -29 c15 -5 27 -16 27 -24 0 -20 -9 -18 -52 12 -40 28 -49 41 -20 29 9
-4 29 -12 45 -17z m170 15 c-7 -2 -19 -2 -25 0 -7 3 -2 5 12 5 14 0 19 -2 13
-5z m-397 -13 c5 -5 59 -17 119 -26 61 -9 112 -18 114 -20 13 -12 -14 -12 -85
1 -43 8 -121 20 -171 26 -51 7 -93 16 -93 20 0 12 104 11 116 -1z m454 -11 c0
-14 -27 -10 -33 5 -4 10 0 12 14 9 10 -3 19 -9 19 -14z m-952 -17 c3 -9 -4
-11 -25 -6 -42 10 -50 23 -12 21 18 -1 34 -8 37 -15z m1102 8 c0 -5 -4 -10
-10 -10 -5 0 -10 5 -10 10 0 6 5 10 10 10 6 0 10 -4 10 -10z m-630 -31 c85
-11 170 -22 188 -25 18 -2 42 -9 52 -14 10 -6 35 -10 54 -10 60 0 314 -70 351
-97 20 -15 20 -15 -2 -9 -146 43 -183 52 -433 100 -241 47 -571 67 -590 36 -5
-8 -12 -11 -16 -7 -11 11 -35 -29 -28 -48 4 -9 12 -14 20 -11 14 5 64 -15 64
-26 0 -11 -8 -10 -31 3 -22 11 -79 3 -79 -12 0 -5 8 -9 17 -9 15 0 14 -2 -3
-14 -17 -13 -20 -12 -27 6 -5 15 -2 27 13 44 24 24 10 45 -15 24 -8 -6 -19 -9
-25 -5 -5 3 -10 1 -10 -5 0 -6 -5 -8 -10 -5 -16 10 -3 54 22 75 17 15 32 18
61 14 22 -3 37 -2 37 4 0 24 171 20 390 -9z m-607 -8 c18 -18 2 -21 -52 -11
-29 5 -57 7 -62 4 -5 -3 -9 -1 -9 5 0 5 5 11 12 13 21 7 101 -1 111 -11z
m2847 -17 c0 -2 -9 -4 -21 -4 -11 0 -18 4 -14 10 5 8 35 3 35 -6z m623 9 c-13
-2 -35 -2 -50 0 -16 2 -5 4 22 4 28 0 40 -2 28 -4z m-1990 -10 c-7 -2 -19 -2
-25 0 -7 3 -2 5 12 5 14 0 19 -2 13 -5z m1870 0 c-13 -2 -35 -2 -50 0 -16 2
-5 4 22 4 28 0 40 -2 28 -4z m-3093 -17 c0 -8 -13 -16 -30 -18 -20 -3 -30 0
-30 8 0 11 9 15 53 23 4 0 7 -5 7 -13z m380 -6 c99 -10 337 -57 478 -96 42
-11 60 -20 53 -27 -7 -7 -14 -7 -23 0 -17 14 -181 48 -328 67 -63 9 -161 23
-217 32 -55 9 -117 15 -136 12 -20 -2 -33 0 -31 4 3 4 -18 8 -45 8 -38 0 -56
-5 -71 -20 -12 -12 -26 -18 -32 -14 -7 4 -5 10 5 16 10 5 14 15 10 25 -6 14 6
15 113 10 65 -4 166 -11 224 -17z m2608 13 c-15 -2 -42 -2 -60 0 -18 2 -6 4
27 4 33 0 48 -2 33 -4z m-135 -10 c-18 -2 -48 -2 -65 0 -18 2 -4 4 32 4 36 0
50 -2 33 -4z m-3103 -27 c17 -7 26 -21 28 -40 l4 -28 -77 4 c-42 3 -78 1 -81
-4 -8 -13 -34 -9 -34 6 0 8 8 24 19 37 17 22 17 24 2 35 -13 10 -3 11 49 7 36
-3 76 -10 90 -17z m2960 17 c-41 -4 -84 -23 -50 -23 10 0 9 -5 -4 -19 -10 -10
-14 -26 -10 -37 5 -16 3 -16 -14 3 -11 12 -22 20 -25 17 -16 -16 1 25 18 43
16 17 31 21 75 20 52 0 53 -1 10 -4z m-1423 -29 c-3 -3 -12 -4 -19 -1 -8 3 -5
6 6 6 11 1 17 -2 13 -5z m-1077 -19 c0 -8 -6 -15 -12 -15 -7 0 -5 -5 5 -11 10
-6 29 -8 42 -5 19 5 23 3 19 -8 -5 -12 1 -14 30 -9 24 4 36 2 36 -6 0 -7 4 -9
10 -6 5 3 19 1 30 -5 14 -8 20 -8 20 0 0 6 5 8 10 5 6 -4 8 -11 5 -16 -4 -5 6
-9 22 -9 15 0 39 -3 53 -7 24 -6 24 -6 8 11 -14 14 -15 20 -5 31 9 9 13 10 17
1 5 -11 23 -18 48 -19 6 0 12 -4 12 -8 0 -5 13 -1 29 9 27 15 31 15 48 0 10
-9 38 -18 63 -21 54 -6 164 -38 168 -49 2 -4 14 -8 27 -8 13 0 45 -9 72 -21
26 -11 75 -30 108 -41 33 -11 65 -25 70 -30 13 -13 8 -12 -240 68 -110 35
-207 64 -215 65 -32 3 -103 -1 -98 -6 3 -3 65 -21 139 -40 263 -67 472 -135
612 -199 71 -33 77 -38 67 -56 -7 -14 -7 -20 0 -20 5 0 10 7 10 15 0 19 0 19
62 -9 29 -14 81 -35 115 -48 41 -15 67 -32 77 -49 14 -24 14 -28 1 -33 -8 -3
-27 -1 -41 4 -51 20 -58 8 -11 -16 27 -14 55 -23 63 -20 8 3 14 2 15 -2 0 -4
2 -21 5 -39 5 -41 -6 -47 -52 -28 -20 8 -38 15 -39 15 -4 0 12 -71 17 -73 1
-1 29 -15 61 -30 31 -16 57 -34 56 -40 0 -8 -2 -8 -6 1 -2 6 -11 12 -19 12
-15 0 -19 -12 -7 -24 4 -4 15 -44 24 -89 9 -45 20 -91 25 -101 6 -17 4 -18
-22 -11 -16 4 -57 13 -92 21 -40 8 -97 33 -154 66 -50 28 -150 79 -222 113
l-131 61 -46 183 c-25 100 -43 184 -39 186 6 4 138 -41 212 -73 25 -11 55 -18
66 -15 11 2 41 -5 67 -16 55 -24 59 -25 49 -10 -10 16 -247 130 -261 125 -6
-3 -13 -2 -15 2 -3 8 -231 72 -236 67 -2 -2 16 -13 40 -24 l43 -21 -48 5 -48
5 7 -35 c3 -19 5 -35 3 -35 -2 0 -19 4 -37 9 -27 8 -34 7 -39 -6 -3 -8 0 -19
8 -24 11 -7 11 -9 1 -9 -17 0 -9 -42 19 -106 15 -34 25 -44 43 -44 24 0 41
-23 37 -50 -5 -25 -21 -28 -69 -14 -64 20 -65 9 0 -20 58 -26 121 -87 112
-109 -5 -15 10 -30 41 -40 17 -6 17 -4 -4 13 -42 36 -14 34 42 -3 29 -20 107
-59 173 -87 65 -28 133 -59 150 -69 17 -10 48 -24 70 -31 21 -7 67 -26 101
-42 46 -22 60 -33 56 -45 -5 -12 -1 -14 15 -9 30 10 72 -33 72 -73 0 -16 -4
-33 -10 -36 -5 -3 -40 6 -77 20 -38 15 -81 31 -98 37 -16 6 -34 15 -40 19 -5
4 -62 28 -125 54 -63 26 -122 53 -130 62 -10 10 2 8 40 -7 96 -38 133 -50 138
-45 9 8 4 10 -153 70 -82 31 -201 77 -264 102 -63 25 -149 56 -192 70 -43 13
-81 28 -84 33 -3 6 -15 10 -25 10 -31 0 -180 50 -180 60 0 6 -5 10 -11 10 -21
0 -2 -24 27 -33 16 -6 31 -13 34 -16 3 -4 64 -26 137 -50 72 -23 140 -49 150
-56 10 -8 -20 0 -67 16 -94 34 -210 46 -210 24 0 -8 -14 -16 -30 -20 -40 -9
-28 -25 45 -56 31 -13 53 -29 51 -35 -6 -16 32 -25 38 -10 3 8 7 7 14 -2 5 -7
15 -11 23 -9 8 2 11 2 7 0 -14 -8 -8 -22 6 -17 8 3 39 -6 70 -20 109 -50 171
-74 209 -81 43 -8 45 -2 22 65 -14 39 -14 41 1 29 9 -7 31 -12 49 -10 33 2 54
-12 36 -24 -6 -3 -8 -25 -5 -48 5 -42 33 -77 60 -77 17 0 19 26 3 36 -6 3 -9
15 -6 25 3 12 0 19 -9 19 -8 0 -14 5 -14 10 0 7 7 7 20 0 11 -6 24 -9 28 -7
12 8 29 -17 26 -37 -1 -10 -7 -23 -13 -29 -18 -18 -13 -24 44 -54 48 -24 57
-26 66 -13 9 12 10 12 5 -3 -4 -13 2 -20 20 -27 33 -13 31 -14 38 14 5 22 9
24 38 16 17 -5 42 -20 55 -32 18 -17 22 -18 18 -6 -6 15 -3 16 27 7 18 -6 50
-12 71 -12 45 -2 92 -48 77 -76 -5 -10 -5 -23 0 -31 10 -16 -5 -40 -26 -40 -7
0 -46 17 -86 38 -40 20 -123 59 -183 85 -105 46 -142 64 -265 128 -30 16 -90
38 -133 49 -43 11 -105 34 -138 50 -32 17 -104 40 -159 51 -84 18 -98 24 -88
36 13 16 4 27 -31 38 -19 6 -23 4 -18 -9 10 -26 -10 -28 -55 -5 -52 26 -49 23
-52 45 -4 26 -23 28 -36 4 -8 -15 -15 -18 -28 -11 -9 4 -23 6 -31 3 -8 -2 25
-17 73 -33 47 -15 99 -37 115 -48 16 -12 36 -21 44 -21 9 0 18 -4 21 -8 3 -5
31 -14 63 -21 57 -12 109 -35 206 -88 58 -32 60 -44 5 -31 -24 5 -52 11 -64
12 -27 4 -56 21 -54 32 3 12 -203 95 -212 86 -18 -18 7 -55 56 -82 54 -32 49
-40 -9 -16 -19 8 -35 20 -35 26 0 6 -10 8 -25 4 -13 -3 -39 -1 -56 5 -25 8
-35 8 -52 -4 -40 -28 -107 -10 -107 29 0 13 7 15 39 10 30 -5 39 -3 44 11 11
28 -12 56 -69 81 -30 13 -54 29 -54 34 0 6 -5 8 -12 4 -7 -4 -23 -9 -36 -10
-32 -4 -37 -10 -22 -29 7 -8 10 -25 6 -39 -4 -15 -1 -26 7 -29 6 -3 -3 -8 -20
-12 -18 -4 -33 -11 -33 -15 0 -5 -9 -6 -20 -3 -11 3 -20 9 -20 13 0 4 -7 11
-16 14 -8 3 -12 2 -9 -4 8 -14 -28 -13 -42 1 -8 8 -17 8 -31 0 -42 -22 -112
-7 -112 25 0 12 -2 12 -14 2 -8 -7 -12 -15 -10 -17 5 -6 -17 -31 -27 -31 -20
0 -7 24 36 65 24 24 47 56 50 72 19 98 23 122 25 158 7 181 18 277 31 286 12
8 11 11 -3 20 -10 5 -18 16 -18 24 0 21 21 30 32 14 6 -9 11 -10 14 -3 7 17
53 4 65 -18 6 -10 9 -26 7 -36 -1 -9 6 -32 17 -49 16 -27 26 -33 53 -33 40 0
165 -30 277 -67 60 -20 75 -28 60 -33 -19 -7 -19 -7 2 -14 13 -4 26 -5 31 -2
15 9 188 -43 355 -107 48 -19 67 -22 67 -13 0 33 -63 65 -198 100 -57 14 -115
35 -131 47 -18 13 -106 38 -251 72 l-224 52 -12 65 c-18 92 -17 110 4 110 44
0 439 -74 452 -85 16 -13 99 -38 165 -50 21 -4 45 -14 53 -23 11 -15 12 -12 7
23 -9 52 -9 52 -52 60 -21 4 -74 17 -119 30 -74 21 -286 55 -444 71 -66 6
-110 25 -110 46 0 6 -7 19 -15 28 -14 16 -14 17 7 14 13 -2 115 -13 228 -24
182 -18 328 -39 483 -70 62 -13 68 -13 65 3 -6 27 -351 100 -667 141 -63 8
-117 19 -121 23 -4 4 -11 18 -15 31 -6 20 -3 22 31 22 27 0 43 7 61 26 13 14
21 30 18 35 -4 5 1 9 9 9 9 0 16 -7 16 -15z m1028 -26 c-2 -43 -10 -54 -34
-45 -12 5 -13 10 -3 27 9 17 8 23 -2 30 -7 4 -10 12 -5 16 5 4 11 2 13 -4 6
-18 23 -16 23 2 0 8 2 15 5 15 3 0 5 -18 3 -41z m1473 -21 c6 -12 6 -18 -1
-18 -5 0 -10 5 -10 11 0 5 -5 7 -10 4 -6 -4 -10 -3 -9 2 3 20 -2 34 -11 28
-11 -7 -14 8 -3 19 7 7 25 -12 44 -46z m-1419 -37 c11 -13 13 -22 6 -29 -16
-16 -4 -35 37 -57 35 -18 37 -18 46 -2 8 13 15 15 28 8 10 -6 23 -6 31 -1 17
11 30 4 30 -16 0 -8 -7 -14 -16 -14 -8 0 -12 -5 -9 -11 4 -6 13 -8 20 -5 7 2
16 2 20 -2 4 -4 12 -7 18 -7 7 0 13 -9 15 -20 7 -33 22 -47 38 -34 11 9 14 8
14 -1 0 -8 3 -10 7 -7 3 4 11 -3 18 -16 6 -12 19 -21 29 -20 15 1 14 -2 -6
-24 l-23 -26 24 13 c21 11 23 10 18 -4 -4 -10 -1 -16 8 -16 8 0 15 -5 15 -10
0 -6 6 -10 13 -9 27 3 48 -1 43 -10 -4 -5 -1 -11 5 -13 8 -3 6 -9 -4 -20 -9
-8 -14 -18 -11 -21 3 -3 14 3 25 14 18 18 18 21 4 35 -17 18 -20 34 -5 34 6 0
10 -4 10 -8 0 -5 9 -19 19 -31 11 -13 17 -30 14 -38 -4 -9 -2 -14 3 -12 54 25
64 34 59 50 -3 9 -1 20 4 24 7 3 8 0 5 -9 -9 -22 5 -20 27 5 10 11 15 28 12
36 -5 11 -3 14 6 9 7 -5 10 -15 7 -23 -5 -11 -2 -13 10 -9 14 5 15 4 4 -9 -7
-8 -16 -13 -20 -10 -4 2 -20 -9 -35 -25 -16 -17 -34 -30 -41 -30 -6 0 -17 -7
-24 -15 -14 -17 -35 -21 -25 -5 3 6 1 10 -6 10 -8 0 -8 4 1 15 14 17 3 20 -20
5 -12 -8 -13 -11 -1 -19 15 -10 6 -51 -11 -51 -6 0 -26 14 -45 30 -18 17 -31
30 -29 30 3 0 -26 30 -66 68 -39 37 -91 86 -116 110 -24 24 -47 40 -51 37 -3
-4 4 -15 17 -25 12 -10 22 -24 22 -31 0 -7 7 -20 16 -30 29 -32 -1 -27 -40 7
-28 24 -34 34 -22 34 20 0 17 20 -5 31 -8 5 -49 24 -91 44 -78 35 -97 48 -56
37 16 -4 19 -2 13 9 -5 8 -17 20 -26 27 -19 13 -20 55 -1 74 7 7 13 21 13 33
1 15 3 13 8 -7 3 -15 13 -36 23 -47z m-1299 35 c10 3 17 1 17 -5 0 -12 -20
-14 -44 -5 -9 3 -13 11 -10 16 4 7 9 6 14 -1 3 -7 14 -9 23 -5z m1347 -2 c0
-11 -28 -33 -34 -27 -10 10 -7 25 4 18 6 -3 10 -1 10 4 0 6 5 11 10 11 6 0 10
-3 10 -6z m-205 -67 c17 -4 17 -5 -4 -6 -25 -1 -91 42 -91 60 0 6 17 -3 38
-19 20 -16 46 -32 57 -35z m245 55 c0 -4 -5 -13 -11 -19 -13 -13 -3 -36 12
-28 5 4 9 1 9 -5 0 -6 -7 -13 -15 -16 -8 -4 -15 -11 -15 -16 0 -6 6 -6 14 2
11 8 20 9 33 1 13 -8 14 -11 3 -10 -8 1 -23 -1 -32 -5 -11 -5 -23 -2 -33 7
-19 20 -19 41 0 57 8 7 15 19 15 26 0 8 5 14 10 14 6 0 10 -4 10 -8z m-420
-18 c0 -2 -7 -4 -15 -4 -8 0 -15 4 -15 10 0 5 7 7 15 4 8 -4 15 -8 15 -10z
m1805 -61 c-2 -7 4 -18 13 -25 17 -13 90 -129 113 -180 7 -16 18 -28 25 -28 8
0 11 -6 8 -14 -3 -8 6 -38 20 -67 15 -28 24 -54 21 -57 -3 -3 -5 0 -5 6 0 7
-7 12 -15 12 -9 0 -12 6 -8 17 4 11 3 14 -6 9 -9 -6 -12 -2 -10 10 4 22 -20
84 -31 84 -5 0 -12 14 -15 32 -7 28 -9 30 -20 15 -6 -9 -15 -14 -18 -10 -11
10 -8 23 4 21 6 -2 14 3 17 11 3 8 0 11 -7 7 -7 -5 -9 -1 -4 10 5 13 3 15 -7
9 -8 -5 -11 -4 -6 3 3 6 2 13 -4 17 -5 3 -10 1 -10 -4 0 -6 -5 -11 -11 -11 -8
0 -8 4 0 14 10 11 9 21 -4 46 -9 17 -20 28 -24 25 -13 -7 -34 22 -28 38 3 8 1
20 -4 28 -7 11 -9 11 -9 1 0 -7 -4 -10 -10 -7 -5 3 -10 0 -10 -8 0 -7 -6 -14
-14 -14 -12 0 -11 6 5 25 21 27 25 47 7 36 -7 -5 -8 -3 -3 6 9 15 57 -38 50
-57z m-2865 27 c0 -5 -2 -10 -4 -10 -3 0 -8 5 -11 10 -3 6 -1 10 4 10 6 0 11
-4 11 -10z m138 1 c9 -5 25 -12 35 -15 9 -3 17 -10 17 -17 0 -6 -6 -9 -13 -6
-7 3 -13 -3 -14 -12 -1 -9 -4 -25 -8 -37 -5 -15 0 -23 19 -32 14 -6 26 -16 26
-22 0 -13 0 -14 -56 15 -27 14 -55 25 -61 25 -7 0 -12 10 -10 22 1 12 -4 23
-10 24 -26 3 -28 5 -13 14 8 5 16 15 16 22 1 7 2 16 3 21 1 10 48 9 69 -2z
m2697 -81 c3 -5 1 -10 -4 -10 -6 0 -11 5 -11 10 0 6 2 10 4 10 3 0 8 -4 11
-10z m40 -30 c3 -5 2 -10 -4 -10 -5 0 -13 5 -16 10 -3 6 -2 10 4 10 5 0 13 -4
16 -10z m-60 -10 c3 -5 1 -10 -4 -10 -6 0 -11 5 -11 10 0 6 2 10 4 10 3 0 8
-4 11 -10z m-1165 -10 c0 -5 -4 -10 -10 -10 -5 0 -10 5 -10 10 0 6 5 10 10 10
6 0 10 -4 10 -10z m-322 -15 c67 -24 229 -103 238 -116 4 -7 -4 -6 -22 4 -28
15 -244 110 -274 120 -13 5 -13 5 0 6 8 0 34 -6 58 -14z m-1186 -5 c66 -19 57
-74 -11 -67 -33 4 -36 7 -39 41 -4 40 -3 40 50 26z m2735 -22 c-3 -7 -5 -2 -5
12 0 14 2 19 5 13 2 -7 2 -19 0 -25z m43 -18 c0 -5 -4 -10 -10 -10 -5 0 -10 5
-10 10 0 6 5 10 10 10 6 0 10 -4 10 -10z m-884 -39 c-3 -5 1 -14 9 -21 8 -7
15 -17 15 -23 0 -5 -9 0 -20 13 -17 20 -19 40 -4 40 3 0 3 -4 0 -9z m1222 -18
c-16 -2 -40 -2 -55 0 -16 2 -3 4 27 4 30 0 43 -2 28 -4z m-118 -9 c-35 -7 -98
-9 -94 -2 3 5 29 7 57 7 29 -1 45 -3 37 -5z m-166 -12 c2 -4 -4 -8 -14 -8 -10
0 -16 4 -14 8 3 4 9 8 14 8 5 0 11 -4 14 -8z m-1349 -22 c3 -5 2 -10 -4 -10
-5 0 -13 5 -16 10 -3 6 -2 10 4 10 5 0 13 -4 16 -10z m410 -16 c-15 -12 -16
-18 -7 -21 10 -4 9 -9 -4 -24 -9 -10 -22 -19 -28 -19 -6 0 -2 7 8 15 27 21 12
31 -16 11 -12 -9 -27 -16 -32 -16 -12 0 76 69 89 69 6 0 1 -7 -10 -15z m15
-54 c0 -5 -5 -10 -11 -10 -5 0 -7 5 -4 10 3 6 8 10 11 10 2 0 4 -4 4 -10z
m-128 -29 l-22 -18 23 -11 c22 -11 22 -11 -3 -9 -32 3 -33 -21 -3 -49 23 -22
29 -39 16 -47 -5 -2 -2 -2 5 0 8 2 16 -6 19 -17 3 -11 9 -17 14 -14 5 3 9 0 9
-7 0 -7 6 -5 13 6 9 11 19 15 27 10 11 -7 9 -10 -6 -16 -18 -7 -18 -8 1 -9 12
0 5 -6 -20 -15 -50 -18 -48 -18 -41 1 3 8 2 13 -2 10 -4 -2 -27 22 -50 54 -24
32 -50 64 -58 71 -12 10 -7 17 33 44 53 36 78 46 45 16z m68 -1 c0 -5 -4 -10
-10 -10 -5 0 -10 5 -10 10 0 6 5 10 10 10 6 0 10 -4 10 -10z m-37 -14 c4 -10
1 -13 -8 -9 -8 3 -12 9 -9 14 7 12 11 11 17 -5z m1047 10 c0 -3 -4 -8 -10 -11
-5 -3 -10 -1 -10 4 0 6 5 11 10 11 6 0 10 -2 10 -4z m-1906 -66 c-7 -6 -24 22
-23 40 0 9 6 5 14 -10 7 -14 11 -27 9 -30z m866 20 c-8 -5 -22 -9 -30 -9 -10
0 -8 3 5 9 27 12 43 12 25 0z m1139 -22 c15 -43 8 -45 -12 -3 -9 19 -13 35 -8
35 5 0 14 -14 20 -32z m35 -83 c3 -8 1 -15 -4 -15 -6 0 -10 7 -10 15 0 8 2 15
4 15 2 0 6 -7 10 -15z m-1257 -17 c2 -18 0 -20 -7 -8 -12 18 -13 30 -2 30 4 0
9 -10 9 -22z m1284 -55 c6 -21 16 -47 22 -58 14 -25 16 -55 5 -55 -4 0 -8 9
-8 20 0 11 -5 20 -11 20 -5 0 -7 4 -4 10 3 5 -4 26 -15 47 l-21 38 6 -45 c4
-40 3 -42 -5 -15 -11 32 -5 75 9 75 5 0 15 -17 22 -37z m-1109 10 c-6 -3 -10
-9 -7 -13 3 -5 12 -7 20 -3 9 3 15 -1 15 -11 0 -12 -5 -14 -24 -6 -13 5 -26 7
-27 6 -2 -2 -16 -6 -31 -10 -35 -8 -36 5 -3 21 14 6 23 7 19 2 -3 -5 -1 -9 3
-9 5 0 14 9 21 21 7 12 16 18 20 14 4 -4 1 -10 -6 -12z m-127 -13 c27 -30 12
-34 -15 -5 -13 14 -19 25 -13 25 5 0 18 -9 28 -20z m1172 -42 c-3 -8 -6 -5 -6
6 -1 11 2 17 5 13 3 -3 4 -12 1 -19z m-1209 -13 c-3 -3 -9 2 -12 12 -6 14 -5
15 5 6 7 -7 10 -15 7 -18z m192 -6 c0 -6 -4 -8 -9 -5 -11 7 -22 -20 -15 -38 3
-8 0 -17 -7 -22 -9 -5 -10 -2 -6 9 3 10 2 17 -3 17 -7 0 -8 42 -1 45 11 6 41
1 41 -6z m53 -6 c2 -5 -4 -16 -14 -25 -14 -14 -18 -14 -23 -2 -3 8 0 13 7 11
7 -1 11 4 10 11 -3 13 13 17 20 5z m-53 -23 c0 -5 -2 -10 -4 -10 -3 0 -8 5
-11 10 -3 6 -1 10 4 10 6 0 11 -4 11 -10z m60 -20 c0 -5 -2 -10 -4 -10 -3 0
-8 5 -11 10 -3 6 -1 10 4 10 6 0 11 -4 11 -10z m-1353 -32 c-3 -8 -6 -5 -6 6
-1 11 2 17 5 13 3 -3 4 -12 1 -19z m1333 16 c0 -8 -19 -13 -24 -6 -3 5 1 9 9
9 8 0 15 -2 15 -3z m1080 -4 c0 -5 -2 -10 -4 -10 -3 0 -8 5 -11 10 -3 6 -1 10
4 10 6 0 11 -4 11 -10z m-1110 -31 c0 -11 -4 -18 -10 -14 -5 3 -7 12 -3 20 7
21 13 19 13 -6z m-1240 1 c0 -5 -4 -10 -10 -10 -5 0 -10 5 -10 10 0 6 5 10 10
10 6 0 10 -4 10 -10z m2379 -44 c13 -52 13 -70 1 -41 -7 16 -9 17 -9 3 -1 -9
-6 -20 -12 -24 -9 -5 -10 1 -5 20 5 20 4 26 -5 20 -8 -4 -9 -3 -5 5 4 6 12 9
17 6 12 -8 12 12 -1 36 -6 11 -7 19 -2 19 6 0 15 -20 21 -44z m-2270 8 c2 -2
-7 -4 -22 -4 -14 0 -29 5 -32 10 -6 10 42 4 54 -6z m1181 -5 c0 -6 -4 -7 -10
-4 -5 3 -10 11 -10 16 0 6 5 7 10 4 6 -3 10 -11 10 -16z m-1769 -22 c-9 -9
-14 -8 -21 3 -16 24 -11 31 11 19 16 -8 18 -14 10 -22z m1739 6 c0 -22 -2 -25
-10 -13 -13 20 -13 40 0 40 6 0 10 -12 10 -27z m-172 -81 c6 -18 7 -30 2 -27
-11 7 -40 64 -40 79 0 18 27 -18 38 -52z m185 43 c-3 -9 -8 -14 -10 -11 -3 3
-2 9 2 15 9 16 15 13 8 -4z m-1762 -22 c12 -16 12 -17 -1 -7 -8 6 -22 14 -30
17 -13 5 -12 6 1 6 9 1 23 -7 30 -16z m2886 -25 c-3 -7 -5 -2 -5 12 0 14 2 19
5 13 2 -7 2 -19 0 -25z m-3258 -7 c12 -16 21 -32 21 -35 0 -3 9 -15 21 -27 16
-16 35 -21 80 -22 41 -2 58 1 55 9 -5 13 12 10 84 -12 25 -8 72 -16 105 -19
33 -3 75 -7 93 -9 27 -3 32 -1 30 12 -2 10 -9 18 -16 18 -6 1 -16 2 -22 3 -16
2 0 28 23 38 33 14 113 16 139 2 60 -30 98 -90 66 -102 -7 -3 1 -10 17 -17 27
-11 32 -9 49 13 l19 26 33 -27 33 -26 -36 -12 c-33 -11 -44 -10 -117 18 -62
23 -101 31 -164 33 l-82 2 32 -23 c17 -13 38 -24 46 -24 7 0 11 -4 8 -9 -4 -5
3 -7 14 -4 11 3 17 10 14 17 -3 6 1 3 10 -8 8 -10 22 -16 30 -13 8 3 16 3 18
-2 6 -14 173 -64 212 -63 21 1 44 -2 50 -7 6 -5 26 -12 45 -14 19 -3 38 -12
42 -19 7 -10 9 -10 9 2 0 9 3 11 8 5 11 -17 92 -44 109 -38 11 4 14 2 9 -5 -3
-6 4 -21 16 -33 23 -21 23 -21 1 -10 -12 6 -24 15 -27 20 -3 5 -59 21 -123 36
-65 14 -164 40 -221 57 -56 17 -122 33 -147 36 -24 2 -42 8 -40 13 3 4 0 11
-6 15 -7 4 -9 3 -5 -4 3 -6 1 -14 -5 -18 -8 -4 -4 -11 12 -20 13 -7 20 -13 16
-14 -13 0 -51 22 -62 37 -13 18 -69 33 -85 23 -11 -7 -10 -12 3 -25 18 -18 23
-30 8 -20 -5 3 -17 -5 -25 -17 -9 -12 -16 -17 -16 -10 0 6 -9 12 -20 12 -11 0
-23 6 -26 14 -3 8 -16 17 -30 20 -13 4 -24 11 -24 17 0 6 5 7 10 4 6 -3 10 -4
10 0 0 3 -12 10 -27 16 -20 7 -28 6 -35 -3 -6 -10 -10 -10 -18 2 -5 8 -10 10
-10 4 0 -17 -43 -26 -52 -11 -16 25 -8 38 20 35 17 -2 26 1 25 10 -2 6 3 12
10 13 31 3 120 -2 127 -6 5 -3 11 -1 14 4 6 9 -60 28 -129 36 -35 4 -45 0 -68
-24 -15 -16 -27 -34 -27 -41 0 -6 -8 -10 -17 -9 -10 1 -21 1 -25 0 -5 0 -10
-1 -13 -1 -3 0 -19 -7 -35 -15 -17 -9 -30 -12 -30 -7 0 4 -13 13 -30 19 -16 6
-30 7 -30 2 0 -5 -7 -9 -15 -9 -8 0 -15 3 -15 8 0 13 49 30 73 25 21 -4 20 -4
-3 10 -14 8 -29 10 -35 5 -17 -15 -27 -8 -11 8 9 8 16 25 16 36 0 18 4 20 30
14 19 -3 29 -2 25 4 -3 6 -14 10 -24 10 -34 0 -52 41 -35 84 9 23 20 20 43
-13z m811 -6 c41 -14 42 -15 10 -11 -92 12 -119 19 -123 31 -6 14 31 8 113
-20z m1350 -10 c0 -5 -5 -3 -10 5 -5 8 -10 20 -10 25 0 6 5 3 10 -5 5 -8 10
-19 10 -25z m-1820 -37 c0 -13 -24 -9 -58 8 -51 25 -46 34 8 16 27 -9 50 -19
50 -24z m2910 21 c0 -5 -4 -9 -10 -9 -5 0 -10 7 -10 16 0 8 5 12 10 9 6 -3 10
-10 10 -16z m25 12 c3 -5 1 -12 -5 -16 -5 -3 -10 1 -10 9 0 18 6 21 15 7z
m-2478 -27 c-3 -3 -12 -4 -19 -1 -8 3 -5 6 6 6 11 1 17 -2 13 -5z m1388 -24
c-4 -12 -9 -19 -12 -17 -3 3 -2 15 2 27 4 12 9 19 12 17 3 -3 2 -15 -2 -27z
m85 23 c-8 -3 -20 -10 -27 -15 -7 -6 -14 -5 -19 3 -4 8 -3 9 4 5 7 -4 12 -2
12 3 0 6 10 11 23 10 14 0 17 -2 7 -6z m47 -27 c-6 -13 -17 -22 -23 -19 -17 6
-37 -35 -28 -55 4 -9 8 -24 8 -32 1 -8 7 -14 14 -12 10 2 10 -2 2 -18 -12 -23
-25 -27 -16 -5 5 13 2 13 -19 -1 -14 -9 -22 -20 -19 -25 3 -5 -3 -9 -12 -9
-14 0 -13 5 10 29 16 16 25 34 22 39 -3 6 0 12 6 15 8 3 5 8 -8 13 -21 9 -21
10 11 51 18 23 35 39 39 36 3 -3 6 1 6 11 0 9 4 15 9 12 5 -4 4 -16 -2 -30z
m-1966 1 c-10 -9 -11 -8 -5 6 3 10 9 15 12 12 3 -3 0 -11 -7 -18z m1629 2 c0
-6 -4 -7 -10 -4 -5 3 -10 11 -10 16 0 6 5 7 10 4 6 -3 10 -11 10 -16z m1307
-10 c-3 -10 -1 -22 4 -25 12 -7 12 -51 0 -58 -5 -3 -9 4 -9 17 0 12 -3 40 -7
61 -6 30 -5 37 4 31 7 -4 11 -16 8 -26z m-2401 -4 c27 -14 38 -23 24 -19 -29
8 -80 32 -80 39 0 8 3 7 56 -20z m1317 -3 c-3 -12 -9 -22 -14 -22 -5 0 -3 11
3 25 13 30 20 28 11 -3z m-993 1 c0 -7 7 -10 15 -7 18 7 20 -7 3 -25 -11 -10
-9 -11 5 -5 10 3 17 3 15 -2 -1 -5 3 -19 10 -31 11 -19 10 -22 -3 -17 -8 4
-15 11 -15 16 0 6 -11 8 -23 4 -18 -4 -26 0 -35 17 -14 31 -21 54 -17 59 10 9
45 2 45 -9z m90 -49 c8 -7 19 -12 24 -11 9 2 21 -15 31 -47 4 -14 9 -16 17 -8
8 8 17 8 30 1 22 -12 23 -26 2 -47 -16 -15 -15 -17 12 -28 26 -11 30 -10 38 9
5 12 8 28 7 35 -3 16 14 15 55 -4 19 -9 34 -23 34 -32 0 -11 3 -13 11 -5 12
12 110 -31 145 -65 12 -12 25 -18 28 -15 3 4 6 -3 6 -15 0 -12 6 -21 13 -20 7
2 12 -7 12 -21 0 -18 12 -30 54 -52 30 -16 49 -29 44 -29 -16 0 -123 56 -118
62 3 3 -7 5 -22 6 -16 0 -75 22 -133 47 -129 57 -561 232 -586 237 -11 2 10 5
46 6 59 1 67 -1 75 -21 6 -13 29 -28 60 -39 28 -10 68 -27 91 -38 50 -24 70
-25 78 -4 5 12 2 15 -11 10 -10 -4 -15 -4 -11 -1 7 8 -22 45 -36 45 -13 0 -35
32 -36 53 0 19 10 16 40 -9z m674 -10 c20 -8 21 -40 1 -48 -8 -3 -15 -2 -15 2
0 4 -3 17 -6 30 -7 24 -4 25 20 16z m-1094 -44 c0 -5 -2 -10 -4 -10 -3 0 -8 5
-11 10 -3 6 -1 10 4 10 6 0 11 -4 11 -10z m190 -17 c0 -14 2 -15 9 -4 6 9 11
10 15 2 4 -6 15 -11 26 -11 14 0 19 -10 22 -42 5 -49 1 -59 -15 -38 -7 9 -21
14 -32 12 -19 -3 -19 -2 -2 9 17 10 16 13 -14 40 -18 16 -36 29 -41 29 -4 0
-8 5 -8 10 0 6 9 10 20 10 12 0 20 -7 20 -17z m-74 -28 c-3 -8 -10 -15 -15
-15 -7 0 -6 10 1 26 12 26 25 16 14 -11z m939 25 c3 -5 1 -10 -4 -10 -6 0 -11
5 -11 10 0 6 2 10 4 10 3 0 8 -4 11 -10z m-980 -19 c-8 -14 -35 -14 -35 0 0 5
4 8 9 4 5 -3 13 0 16 6 4 5 9 8 12 5 3 -2 2 -9 -2 -15z m-48 -17 c-9 -9 -28 6
-21 18 4 6 10 6 17 -1 6 -6 8 -13 4 -17z m1424 7 c-7 -5 -12 -12 -11 -17 1 -5
-4 -10 -11 -13 -7 -2 -9 1 -4 10 16 27 28 39 34 34 3 -3 0 -10 -8 -14z m-2241
-22 c0 -5 -7 -9 -15 -9 -9 0 -12 6 -9 15 6 15 24 11 24 -6z m1857 -1 c-3 -8
-6 -5 -6 6 -1 11 2 17 5 13 3 -3 4 -12 1 -19z m1381 -56 c5 -40 5 -69 1 -65
-8 9 -24 151 -15 143 3 -3 9 -38 14 -78z m-2854 49 c3 -5 0 -11 -8 -14 -8 -3
-17 1 -20 9 -6 15 19 20 28 5z m246 -34 c52 -16 100 -33 105 -38 6 -4 51 -24
100 -43 50 -18 104 -41 120 -50 17 -9 35 -16 41 -16 5 0 33 -11 61 -24 27 -14
75 -32 106 -41 30 -9 61 -22 67 -30 17 -20 9 -19 -63 11 -34 15 -84 35 -112
45 -57 20 -184 72 -233 95 -46 22 -205 81 -279 105 -35 11 -63 22 -63 25 0 6
39 -4 150 -39z m342 21 c-7 -7 -12 -8 -12 -2 0 6 3 14 7 17 3 4 9 5 12 2 2 -3
-1 -11 -7 -17z m938 -13 c0 -5 -5 -3 -10 5 -9 13 -11 13 -20 0 -5 -8 -10 -10
-10 -4 0 5 5 15 12 22 9 9 14 9 20 -1 4 -6 8 -16 8 -22z m-1890 5 c0 -5 -9
-10 -20 -10 -11 0 -20 5 -20 10 0 6 9 10 20 10 11 0 20 -4 20 -10z m188 -12
c-3 -24 -32 -32 -62 -16 -19 10 -19 11 -1 24 10 8 30 14 43 14 18 0 23 -5 20
-22z m797 -8 c8 -13 -15 -13 -35 0 -12 8 -11 10 7 10 12 0 25 -4 28 -10z
m1229 -14 c-5 -14 -9 -15 -15 -5 -5 8 -3 17 4 21 15 9 19 4 11 -16z m-903 -19
c3 -5 9 -8 13 -7 3 0 14 -3 22 -8 12 -6 13 -11 5 -16 -6 -4 -11 -3 -11 2 0 6
-15 13 -33 16 -18 3 -38 15 -45 26 -11 18 -10 19 16 7 15 -6 30 -15 33 -20z
m-808 16 c-7 -2 -19 -2 -25 0 -7 3 -2 5 12 5 14 0 19 -2 13 -5z m1374 -29 c-3
-3 -13 0 -21 9 -8 8 -12 18 -9 21 4 4 14 0 22 -9 8 -8 12 -17 8 -21z m50 4
c-3 -7 -5 -2 -5 12 0 14 2 19 5 13 2 -7 2 -19 0 -25z m-1700 15 c-9 -2 -14 -9
-11 -15 4 -6 1 -9 -6 -6 -27 9 -22 28 7 27 17 -1 21 -3 10 -6z m1964 -10 c13
-16 12 -17 -3 -4 -10 7 -18 15 -18 17 0 8 8 3 21 -13z m-2001 -19 c0 -8 -4
-12 -10 -9 -5 3 -10 10 -10 16 0 5 5 9 10 9 6 0 10 -7 10 -16z m890 12 c0 -3
-4 -8 -10 -11 -5 -3 -10 -1 -10 4 0 6 5 11 10 11 6 0 10 -2 10 -4z m838 -32
c-4 -3 -12 5 -18 18 -12 22 -12 22 6 6 10 -10 15 -20 12 -24z m-1951 20 c-3
-3 -12 -4 -19 -1 -8 3 -5 6 6 6 11 1 17 -2 13 -5z m303 -8 c0 -8 11 -23 25
-34 17 -13 25 -30 25 -50 0 -26 3 -29 24 -25 15 3 41 -5 68 -21 47 -28 45 -35
-3 -11 -16 9 -34 13 -39 10 -10 -6 -90 26 -90 37 0 5 -7 8 -16 8 -12 0 -15 7
-12 24 4 18 1 23 -9 19 -8 -3 -12 -12 -9 -19 3 -7 -4 -16 -15 -19 -10 -4 -19
-11 -19 -16 0 -6 -4 -7 -10 -4 -5 3 -10 2 -10 -4 0 -5 6 -12 13 -14 7 -3 6 -6
-5 -6 -9 -1 -19 3 -23 8 -8 14 16 61 32 61 10 0 12 6 8 21 -5 14 -1 25 12 34
24 19 53 19 53 1z m1426 -11 c15 -14 25 -27 22 -30 -7 -7 -58 34 -58 46 0 14
7 11 36 -16z m154 -3 c0 -15 -2 -15 -10 -2 -13 20 -13 33 0 25 6 -3 10 -14 10
-23z m1350 7 c0 -6 -4 -7 -10 -4 -5 3 -10 11 -10 16 0 6 5 7 10 4 6 -3 10 -11
10 -16z m-3080 -5 c0 -8 -5 -12 -10 -9 -6 4 -8 11 -5 16 9 14 15 11 15 -7z
m30 -1 c0 -5 -5 -15 -10 -23 -7 -12 -9 -10 -7 8 1 19 17 33 17 15z m956 -40
c-5 -6 -66 19 -66 27 0 4 16 0 35 -8 19 -9 33 -17 31 -19z m1167 17 c-3 -12
-8 -19 -11 -16 -5 6 5 36 12 36 2 0 2 -9 -1 -20z m-2468 0 c3 -5 1 -10 -4 -10
-6 0 -11 5 -11 10 0 6 2 10 4 10 3 0 8 -4 11 -10z m149 -11 c-8 -14 -24 -10
-24 6 0 9 6 12 15 9 8 -4 12 -10 9 -15z m-174 7 c0 -11 -19 -15 -25 -6 -3 5 1
10 9 10 9 0 16 -2 16 -4z m2080 -7 c5 10 9 10 15 1 4 -6 5 -14 1 -17 -9 -9
-56 6 -56 18 0 8 6 7 16 -2 13 -10 17 -10 24 0z m335 1 c-3 -4 -14 -10 -25
-13 -16 -4 -19 -2 -11 7 11 13 43 18 36 6z m50 0 c3 -5 1 -10 -4 -10 -6 0 -11
5 -11 10 0 6 2 10 4 10 3 0 8 -4 11 -10z m-2206 -7 c-3 -20 2 -34 10 -29 5 3
14 -1 21 -9 7 -8 18 -15 25 -15 7 0 19 -8 26 -17 10 -11 10 -14 2 -9 -7 4 -13
3 -13 -3 0 -5 8 -12 19 -16 39 -12 37 -116 -3 -114 -11 0 -16 3 -10 5 6 3 9
16 6 29 -2 14 0 25 7 25 15 0 1 31 -24 55 -33 30 -83 65 -94 65 -17 0 -24 22
-10 31 17 11 39 12 38 2z m1121 -13 c18 -12 2 -12 -25 0 -13 6 -15 9 -5 9 8 0
22 -4 30 -9z m1065 0 c3 -5 -1 -10 -9 -10 -9 0 -16 -5 -16 -12 0 -6 -2 -9 -5
-6 -7 7 5 38 15 38 5 0 12 -4 15 -10z m-935 -36 c30 -7 61 -9 69 -5 7 5 22 6
32 4 10 -3 25 2 34 11 9 8 21 13 28 11 7 -3 30 -6 52 -8 35 -4 40 -7 42 -31 1
-14 -3 -26 -9 -26 -6 0 -9 -3 -5 -6 3 -3 20 4 37 16 20 14 35 19 39 13 3 -6
25 -17 49 -24 50 -15 120 -86 129 -132 3 -15 15 -35 27 -43 28 -21 18 -17 -96
38 -53 26 -108 50 -122 54 -14 3 -41 21 -60 39 -20 18 -49 39 -66 46 -16 8
-30 20 -30 28 0 8 -6 11 -16 7 -9 -3 -21 -6 -27 -6 -22 0 38 -45 106 -80 67
-34 89 -50 67 -50 -12 0 -188 75 -267 114 -28 14 -63 28 -77 32 -14 3 -29 11
-32 16 -4 6 2 7 17 3 13 -5 49 -14 79 -21z m590 16 c0 -5 -5 -10 -11 -10 -5 0
-7 5 -4 10 3 6 8 10 11 10 2 0 4 -4 4 -10z m-2005 -20 c3 -5 2 -10 -4 -10 -5
0 -13 5 -16 10 -3 6 -2 10 4 10 5 0 13 -4 16 -10z m377 -12 c-7 -7 -12 -8 -12
-2 0 6 3 14 7 17 3 4 9 5 12 2 2 -3 -1 -11 -7 -17z m1328 2 c0 -5 -7 -10 -16
-10 -8 0 -12 5 -9 10 3 6 10 10 16 10 5 0 9 -4 9 -10z m298 -8 c2 -7 -3 -12
-12 -12 -9 0 -16 7 -16 16 0 17 22 14 28 -4z m352 3 c0 -2 -10 -9 -22 -15 -22
-11 -22 -10 -4 4 21 17 26 19 26 11z m-370 -31 c13 -13 11 -13 -18 -3 -17 6
-35 16 -38 21 -9 15 37 -1 56 -18z m-1364 -19 c10 -8 15 -14 9 -14 -5 0 -19 6
-29 14 -11 8 -15 15 -10 15 6 0 19 -7 30 -15z m1364 -20 c0 -11 -19 -4 -41 15
l-24 21 33 -16 c17 -8 32 -18 32 -20z m-1945 -5 c67 -33 64 -37 -9 -12 -27 9
-51 23 -54 30 -5 16 -7 16 63 -18z m820 20 c3 -5 1 -10 -4 -10 -6 0 -11 5 -11
10 0 6 2 10 4 10 3 0 8 -4 11 -10z m595 0 c0 -5 -2 -10 -4 -10 -3 0 -8 5 -11
10 -3 6 -1 10 4 10 6 0 11 -4 11 -10z m864 -5 c-4 -8 -11 -15 -16 -15 -6 0 -5
6 2 15 7 8 14 15 16 15 2 0 1 -7 -2 -15z m22 -17 c-11 -15 -16 -18 -16 -7 0
16 21 42 28 34 2 -2 -3 -14 -12 -27z m-1622 -22 c59 -33 109 -76 90 -76 -18
-1 142 -72 173 -77 18 -3 33 -10 33 -15 0 -11 -18 -6 -120 33 -87 33 -120 54
-120 75 0 8 -4 13 -9 9 -5 -3 -13 -1 -16 5 -4 6 -30 26 -58 45 -66 45 -52 45
27 1z m749 8 c26 -9 21 -27 -5 -18 -53 16 -69 25 -63 34 3 6 14 6 28 -1 12 -5
30 -12 40 -15z m868 -25 c10 -6 5 -8 -16 -8 -16 0 -25 3 -18 5 7 3 9 13 6 22
-4 13 -3 14 5 3 5 -7 16 -17 23 -22z m-236 11 c3 -5 1 -10 -4 -10 -6 0 -11 5
-11 10 0 6 2 10 4 10 3 0 8 -4 11 -10z m-479 -20 c22 -12 28 -18 14 -14 -23 6
-71 34 -59 34 3 0 23 -9 45 -20z m-3 -33 c26 -16 47 -30 47 -32 0 -2 -34 10
-75 27 -40 17 -72 35 -70 39 8 11 46 -2 98 -34z m510 13 c-3 -11 -9 -20 -14
-20 -12 0 -11 17 1 25 6 4 7 11 4 17 -4 6 -2 8 4 5 5 -4 8 -16 5 -27z m352 15
c-23 -8 -85 -10 -85 -3 0 4 21 8 48 7 26 0 43 -2 37 -4z m35 -20 c0 -9 -6 -12
-15 -9 -8 4 -12 10 -9 15 8 14 24 10 24 -6z m-1470 -5 c11 -8 7 -9 -15 -4 -37
8 -45 14 -19 14 10 0 26 -5 34 -10z m-836 -31 c-3 -6 0 -9 7 -8 16 3 74 -15
139 -44 25 -11 49 -19 53 -18 5 1 6 -3 3 -8 -4 -5 -2 -12 4 -16 5 -3 10 -1 10
5 0 21 124 -30 133 -54 4 -10 1 -13 -9 -9 -7 3 -14 9 -14 15 0 5 -4 7 -9 4
-12 -8 -42 4 -36 14 3 4 -2 10 -9 13 -8 3 -17 1 -20 -6 -5 -9 -7 -9 -12 1 -3
6 -10 10 -15 6 -5 -3 -21 2 -36 10 -78 42 -157 75 -193 81 -36 6 -50 22 -34
38 10 10 45 -13 38 -24z m1286 21 c0 -5 -4 -10 -10 -10 -5 0 -10 5 -10 10 0 6
5 10 10 10 6 0 10 -4 10 -10z m215 0 c3 -5 1 -10 -4 -10 -6 0 -11 5 -11 10 0
6 2 10 4 10 3 0 8 -4 11 -10z m685 0 c-8 -5 -26 -9 -40 -9 -23 1 -23 2 5 9 43
11 52 11 35 0z m-1293 -6 c-3 -3 -12 -4 -19 -1 -8 3 -5 6 6 6 11 1 17 -2 13
-5z m993 -34 c0 -16 4 -30 10 -32 5 -2 6 -9 1 -17 -7 -11 -12 -7 -24 15 -8 16
-12 35 -10 42 3 6 0 12 -6 12 -6 0 -11 4 -11 9 0 5 9 7 20 4 14 -4 20 -14 20
-33z m230 30 c0 -5 -8 -10 -17 -10 -15 0 -16 2 -3 10 19 12 20 12 20 0z m-552
-18 c2 -7 -2 -10 -12 -6 -9 3 -16 11 -16 16 0 13 23 5 28 -10z m726 6 c-7 -11
-32 -10 -39 2 -3 6 4 9 19 8 13 -1 22 -6 20 -10z m-939 -7 c3 -5 1 -12 -5 -16
-5 -3 -10 1 -10 9 0 18 6 21 15 7z m885 -1 c0 -5 -4 -10 -10 -10 -5 0 -10 5
-10 10 0 6 5 10 10 10 6 0 10 -4 10 -10z m-137 -25 c-7 -21 -13 -19 -13 6 0
11 4 18 10 14 5 -3 7 -12 3 -20z m-1023 -21 c56 -39 96 -74 84 -74 -6 0 -29
16 -52 36 -24 20 -59 45 -80 55 -24 13 -28 18 -12 13 14 -3 41 -17 60 -30z
m300 20 c0 -8 -5 -12 -10 -9 -6 4 -8 11 -5 16 9 14 15 11 15 -7z m-1617 -18
c23 3 16 -20 -7 -24 -23 -5 -41 12 -31 28 5 7 10 8 14 2 3 -5 14 -8 24 -6z
m1865 -9 c15 6 15 5 4 -10 -8 -9 -11 -20 -8 -25 3 -5 7 -43 10 -83 2 -41 7
-81 10 -89 5 -11 -3 -19 -23 -26 -26 -10 -28 -10 -23 9 3 12 1 18 -5 14 -10
-7 -11 39 -2 59 3 5 6 32 7 59 2 51 -8 72 -43 93 -18 11 -17 12 8 6 19 -4 27
-2 27 7 1 10 4 9 11 -3 6 -11 16 -15 27 -11z m-1601 -13 c43 -15 83 -30 88
-34 6 -4 56 -24 112 -45 90 -33 101 -39 93 -55 -9 -17 -7 -17 19 -7 24 9 42 6
112 -20 71 -25 84 -33 83 -51 -1 -21 1 -21 17 -6 13 11 27 14 46 10 54 -13
113 -48 128 -74 l14 -27 1 24 c0 14 -7 32 -14 40 -10 11 -12 22 -6 31 7 11 12
9 29 -11 26 -31 26 -73 0 -115 -25 -41 -57 -51 -112 -33 -23 7 -44 13 -47 14
-3 0 -19 8 -37 18 -17 9 -159 68 -315 131 -329 132 -338 136 -338 148 0 5 3 7
8 5 4 -3 7 8 8 24 1 24 19 59 30 59 2 0 39 -12 81 -26z m-159 -19 c1 -1 0 -9
-4 -18 -5 -15 -10 -14 -46 4 -32 16 -37 23 -28 34 10 12 16 12 44 -2 17 -8 32
-17 34 -18z m1622 15 c0 -5 -4 -10 -10 -10 -5 0 -10 5 -10 10 0 6 5 10 10 10
6 0 10 -4 10 -10z m287 -12 c6 -7 20 -32 33 -55 23 -41 23 -43 5 -63 -26 -28
-32 -25 -29 15 2 25 -1 35 -11 35 -9 0 -12 6 -9 15 4 8 2 15 -4 15 -18 0 -23
-33 -7 -50 19 -21 10 -49 -15 -47 -11 1 -16 6 -12 16 3 9 1 12 -6 7 -8 -5 -12
0 -12 14 0 12 4 19 9 16 12 -8 21 47 10 61 -7 8 -4 15 8 22 24 14 29 13 40 -1z
m-883 -7 c4 -5 -3 -7 -14 -4 -23 6 -26 13 -6 13 8 0 17 -4 20 -9z m671 -1 c3
-6 -1 -7 -9 -4 -18 7 -21 14 -7 14 6 0 13 -4 16 -10z m-1901 -40 c10 0 13 6
10 15 -5 11 -2 13 9 9 9 -3 13 -12 10 -21 -4 -11 -2 -14 5 -9 7 4 12 2 12 -3
0 -10 -19 -15 -45 -12 -6 0 -15 -9 -20 -22 -6 -13 -20 -23 -35 -25 l-25 -2 23
16 c27 20 28 40 5 68 -18 20 -18 20 9 3 15 -9 34 -17 42 -17z m1276 20 c8 -5
11 -10 5 -10 -5 0 -17 5 -25 10 -8 5 -10 10 -5 10 6 0 17 -5 25 -10z m1194
-28 c-22 -21 -40 -35 -42 -30 -4 8 59 67 72 68 4 0 -9 -17 -30 -38z m-1284 4
c35 -16 35 -16 5 -12 l-30 4 24 -19 c21 -17 21 -19 5 -20 -25 -2 -54 1 -84 7
-20 4 -22 2 -10 -6 13 -9 13 -12 0 -23 -8 -6 -15 -19 -15 -27 0 -8 -9 -16 -20
-18 -14 -2 -16 -1 -7 6 7 5 12 13 11 18 -1 5 0 14 1 19 1 6 3 15 5 20 1 6 3
25 3 44 2 33 3 34 40 28 20 -2 53 -12 72 -21z m387 -2 c-3 -3 -12 -4 -19 -1
-8 3 -5 6 6 6 11 1 17 -2 13 -5z m-823 -19 c8 -9 19 -15 23 -14 4 1 25 -5 45
-14 21 -10 45 -17 55 -18 11 0 13 -3 6 -6 -16 -6 -133 32 -159 52 -17 13 -17
14 -2 15 9 0 23 -7 32 -15z m692 -31 c39 -19 75 -34 81 -34 10 0 85 -28 148
-56 17 -7 52 -22 79 -34 27 -11 47 -22 45 -25 -7 -7 -279 93 -318 117 -20 12
-63 29 -95 38 -33 9 -62 22 -64 29 -6 18 42 5 124 -35z m-1296 -8 c167 -75
676 -276 698 -276 30 0 92 -29 92 -43 0 -7 -5 -18 -11 -24 -12 -12 -4 -33 12
-33 5 0 9 8 9 18 0 36 15 46 44 27 26 -17 27 -17 41 1 13 17 14 17 15 2 0 -9
24 -35 53 -58 l52 -42 -35 7 c-19 4 -55 16 -79 26 -49 22 -61 23 -61 9 0 -13
242 -130 268 -130 22 0 64 78 64 118 0 20 9 26 33 23 6 -1 2 5 -8 13 -18 14
-18 15 6 30 25 17 38 15 112 -19 16 -8 73 -32 125 -54 l95 -40 1 -43 c0 -24
-6 -54 -14 -66 -12 -21 -11 -26 4 -44 18 -19 18 -19 -11 -14 -28 6 -28 6 -7
-5 12 -7 22 -16 22 -21 0 -5 -10 -9 -22 -8 -42 4 -46 0 -93 -72 -63 -96 -85
-120 -100 -108 -8 6 -18 5 -30 -4 -16 -11 -17 -17 -7 -29 11 -13 9 -15 -12
-13 -13 0 -22 4 -19 9 6 10 -11 9 -23 -3 -8 -8 -88 13 -197 53 -35 12 -34 20
29 151 44 93 45 98 29 117 -31 33 -48 23 -90 -58 -22 -41 -52 -98 -68 -124
l-27 -49 -53 21 c-86 33 -127 52 -127 59 0 3 -13 14 -30 23 -25 15 -30 16 -30
3 0 -8 9 -18 21 -21 11 -4 19 -9 16 -11 -5 -5 -76 19 -132 45 -22 10 -50 22
-62 25 -13 4 -23 12 -23 18 0 6 -3 9 -6 5 -3 -3 -27 7 -52 22 -26 16 -70 36
-99 45 -29 10 -80 31 -113 47 -33 16 -65 29 -70 29 -6 0 -34 13 -63 28 -28 16
-72 35 -96 42 -23 8 -50 24 -58 36 -12 19 -12 27 1 59 19 46 21 64 4 47 -7 -7
-18 -12 -26 -12 -7 0 0 14 18 33 16 17 33 40 36 51 5 14 8 15 14 6 6 -9 16 3
34 39 15 29 32 54 39 57 16 6 60 -10 197 -71 58 -26 154 -67 214 -91 59 -24
122 -51 140 -59 43 -20 116 -45 132 -45 30 0 12 22 -33 41 -27 11 -57 24 -68
29 -11 4 -108 43 -215 85 -205 82 -473 206 -485 225 -5 8 -2 9 11 1 11 -6 44
-21 74 -35z m1220 -16 l23 -18 -21 -11 c-17 -9 -32 -9 -62 0 -43 13 -53 29
-19 29 34 0 5 27 -37 34 -19 4 -32 11 -29 16 7 11 113 -26 145 -50z m-1497 25
c13 -19 15 -25 4 -25 -17 0 -37 20 -37 37 0 20 13 15 33 -12z m1922 -40 c6 -1
16 -3 23 -3 6 -1 12 -6 12 -11 0 -18 -48 -3 -108 34 -34 21 -62 40 -62 42 0 2
28 -11 63 -29 34 -17 67 -33 72 -33z m675 20 c0 -5 -5 -3 -10 5 -7 12 -11 10
-19 -10 -7 -18 -10 -20 -10 -7 -1 25 22 49 31 33 4 -6 8 -15 8 -21z m-261 -50
c0 -5 -6 1 -14 15 -8 14 -14 30 -14 35 0 6 6 -1 14 -15 8 -14 14 -29 14 -35z
m-756 10 c-3 -15 -17 -16 -37 -2 -16 12 -15 13 11 12 15 0 27 -4 26 -10z
m1016 -12 c12 3 19 1 15 -4 -10 -17 -54 -10 -54 9 0 13 2 14 9 3 5 -8 18 -12
30 -8z m-971 -19 c14 9 63 -4 57 -14 -3 -5 5 -6 17 -2 16 4 19 2 13 -8 -5 -8
-4 -11 2 -7 6 4 23 0 39 -7 52 -25 99 -44 124 -52 22 -6 23 -8 7 -13 -17 -6
-16 -8 8 -19 14 -7 24 -8 21 -3 -3 5 3 7 14 4 24 -6 24 -6 4 -44 -10 -19 -21
-29 -30 -25 -8 3 -22 2 -31 -1 -15 -6 -15 -7 1 -13 17 -6 17 -7 2 -23 -15 -15
-18 -15 -45 1 -16 9 -27 20 -25 24 3 5 0 8 -6 8 -6 0 -5 13 5 36 8 20 15 38
15 39 0 2 -17 9 -37 15 -88 27 -170 70 -157 83 3 3 -4 8 -15 12 -12 3 -18 11
-15 17 4 7 9 6 14 -2 4 -7 13 -10 18 -6z m353 -4 c13 -10 18 -19 12 -20 -7 0
-13 5 -13 10 0 6 -6 10 -14 10 -8 0 -18 5 -21 10 -10 17 11 11 36 -10z m-651
-10 c-6 -12 -8 -30 -5 -40 5 -15 2 -20 -13 -20 -48 0 -29 74 21 79 4 1 3 -8
-3 -19z m-1123 -6 c-3 -3 -12 -4 -19 -1 -8 3 -5 6 6 6 11 1 17 -2 13 -5z
m1193 2 c0 -15 -21 -56 -29 -56 -13 0 -22 27 -15 45 5 13 44 22 44 11z m710
-20 c-7 -7 -13 -7 -20 0 -6 6 -3 10 10 10 13 0 16 -4 10 -10z m83 -1 c-3 -9
-8 -14 -10 -11 -3 3 -2 9 2 15 9 16 15 13 8 -4z m408 -14 c5 8 9 10 9 4 0 -5
-8 -20 -18 -33 l-18 -23 5 38 c3 22 6 30 9 19 3 -15 6 -16 13 -5z m-1031 -6
c0 -16 -27 -32 -37 -22 -3 4 -3 13 0 22 8 20 37 20 37 0z m740 -5 c0 -5 -5
-10 -11 -10 -5 0 -7 5 -4 10 3 6 8 10 11 10 2 0 4 -4 4 -10z m-4527 -47 c-13
-2 -35 -2 -50 0 -16 2 -5 4 22 4 28 0 40 -2 28 -4z m3824 -29 c79 -18 104 -34
53 -34 -44 1 -187 48 -148 49 15 1 57 -6 95 -15z m-3630 0 c-3 -3 -12 -4 -19
-1 -8 3 -5 6 6 6 11 1 17 -2 13 -5z m1563 -70 c0 -4 -9 1 -20 11 -27 25 -25
11 4 -28 13 -18 27 -42 31 -54 3 -13 11 -23 16 -23 11 0 11 -2 -1 38 -7 28 -7
32 5 22 17 -14 24 -108 8 -114 -17 -7 -40 24 -48 64 -4 19 -16 50 -26 68 -11
19 -17 37 -14 42 3 4 -2 13 -11 20 -11 10 -12 15 -2 21 8 5 20 -4 35 -26 13
-19 23 -37 23 -41z m406 61 c17 -13 16 -14 -15 -5 -41 11 -51 20 -25 20 11 0
29 -7 40 -15z m2659 5 c-3 -5 -11 -10 -16 -10 -6 0 -7 5 -4 10 3 6 11 10 16
10 6 0 7 -4 4 -10z m19 -25 c-4 -8 -11 -15 -16 -15 -6 0 -5 6 2 15 7 8 14 15
16 15 2 0 1 -7 -2 -15z m-1359 -26 c0 -19 -6 -25 -27 -27 -32 -4 -38 17 -12
43 22 21 39 14 39 -16z m-1795 11 c0 -5 -4 -10 -10 -10 -5 0 -10 5 -10 10 0 6
5 10 10 10 6 0 10 -4 10 -10z m545 -8 c-3 -3 -11 0 -18 7 -9 10 -8 11 6 5 10
-3 15 -9 12 -12z m-1794 -18 c-11 -15 -18 -31 -14 -36 3 -6 0 -9 -7 -6 -8 2
-16 10 -18 18 -3 8 0 10 8 5 10 -6 12 -4 7 8 -4 11 -1 17 8 17 8 0 15 5 15 10
0 6 5 10 11 10 6 0 1 -12 -10 -26z m4443 -10 c3 -8 2 -12 -4 -9 -6 3 -10 10
-10 16 0 14 7 11 14 -7z m-2550 -33 c-2 -3 -12 3 -22 13 -16 17 -16 18 5 5 12
-7 20 -15 17 -18z m2526 0 c0 -9 5 -22 12 -29 9 -9 9 -12 0 -12 -7 0 -9 -7 -5
-17 3 -10 3 -15 -1 -12 -4 4 -8 15 -10 25 -3 11 -9 31 -15 46 -8 22 -8 26 4
21 8 -3 15 -13 15 -22z m-5377 -71 c3 -59 3 -73 -3 -45 -9 40 -13 142 -6 134
2 -2 6 -42 9 -89z m5290 36 c-5 -7 -9 -4 -11 9 -2 11 -7 25 -11 30 -3 6 2 2
11 -8 10 -11 15 -24 11 -31z m1052 -54 c-10 -80 -17 -57 -8 29 4 41 9 63 11
50 2 -14 1 -49 -3 -79z m-3471 44 c39 -24 92 -54 119 -67 26 -13 47 -30 47
-38 0 -17 144 -94 280 -150 41 -17 96 -41 121 -54 l47 -22 -23 -43 c-19 -36
-24 -40 -35 -27 -10 13 -10 19 4 33 9 10 16 25 16 33 -1 18 -40 -28 -40 -47 0
-8 -4 -14 -10 -14 -5 0 -10 4 -10 9 0 8 -32 23 -57 25 -7 1 -18 7 -25 14 -6 6
-20 12 -30 12 -23 0 -22 9 2 40 29 37 24 50 -5 16 -14 -16 -25 -33 -25 -37 0
-4 -13 0 -30 9 -16 9 -30 21 -30 25 0 5 -5 5 -11 1 -6 -3 -23 2 -37 12 -15 11
-43 25 -63 32 -48 16 -276 138 -316 168 -35 26 -42 54 -20 73 10 8 27 4 68
-17 63 -33 139 -64 139 -57 0 3 -37 29 -82 60 -99 66 -94 73 6 11z m31 34 c3
-5 1 -10 -4 -10 -6 0 -11 5 -11 10 0 6 2 10 4 10 3 0 8 -4 11 -10z m-1986 -3
c-2 -1 -14 -10 -26 -21 -21 -17 -21 -17 -16 3 3 13 13 21 26 21 11 0 18 -1 16
-3z m1672 -17 c32 -26 4 -27 -36 0 -27 18 -28 20 -9 20 12 0 32 -9 45 -20z
m-2564 -37 c-3 -10 -5 -2 -5 17 0 19 2 27 5 18 2 -10 2 -26 0 -35z m2532 20
c25 -25 34 -53 16 -53 -22 0 -69 45 -61 58 10 17 24 15 45 -5z m2747 -20 c-10
-10 -19 5 -10 18 6 11 8 11 12 0 2 -7 1 -15 -2 -18z m110 -28 c-2 -47 2 -53
22 -33 9 9 9 5 0 -15 -12 -24 -14 -25 -26 -10 -6 9 -9 26 -6 36 4 14 3 17 -6
12 -9 -6 -9 -3 -1 14 7 12 9 26 6 31 -3 6 -2 10 4 10 6 0 9 -20 7 -45z m-4427
22 c-2 -1 -13 -9 -24 -17 -19 -14 -19 -14 -6 3 7 9 18 17 24 17 6 0 8 -1 6 -3z
m4367 -39 c23 -45 12 -43 -15 4 -12 22 -18 37 -12 34 6 -4 18 -21 27 -38z
m-4479 -5 c-3 -3 -11 -2 -17 2 -9 6 -9 10 1 16 14 8 27 -7 16 -18z m1808 2
c22 -14 36 -25 30 -25 -5 0 -28 11 -50 25 -22 13 -35 24 -30 24 6 0 28 -11 50
-24z m-325 -5 c8 -5 11 -10 5 -10 -5 0 -17 5 -25 10 -8 5 -10 10 -5 10 6 0 17
-5 25 -10z m2940 -5 c0 -8 -4 -15 -10 -15 -5 0 -7 7 -4 15 4 8 8 15 10 15 2 0
4 -7 4 -15z m-5274 -56 c-15 -33 -15 -34 -16 -6 0 15 5 27 10 27 6 0 11 10 11
23 1 13 3 16 6 6 2 -8 -3 -31 -11 -50z m918 46 c26 -20 42 -19 26 0 -11 13
-10 14 4 9 21 -8 20 -13 -12 -52 -27 -32 -29 -33 -43 -15 -13 16 -12 17 3 5
14 -11 18 -10 28 8 6 12 10 23 8 24 -2 2 -14 10 -28 19 -13 9 -20 17 -15 17 6
0 19 -7 29 -15z m1002 -12 c-10 -10 -19 5 -10 18 6 11 8 11 12 0 2 -7 1 -15
-2 -18z m-1060 5 c-9 -5 -23 -5 -32 0 -12 6 -7 9 16 9 23 0 28 -3 16 -9z m167
-7 c3 -15 1 -18 -11 -14 -10 4 -13 2 -8 -5 3 -6 -3 -13 -14 -17 -11 -3 -20
-11 -20 -16 0 -5 -5 -9 -12 -9 -6 0 3 14 20 31 18 17 32 35 32 40 0 16 8 10
13 -10z m1397 -28 c0 -1 -11 2 -25 9 -13 6 -22 15 -19 19 4 7 44 -19 44 -28z
m2881 23 c10 6 13 -9 3 -19 -9 -9 -33 16 -26 28 3 5 7 4 10 -3 2 -7 8 -10 13
-6z m-3024 -32 c-7 -7 -37 7 -37 17 0 6 9 5 21 -1 11 -7 19 -14 16 -16z m4014
-39 c-8 -36 -9 -37 -10 -10 -1 36 12 87 16 65 2 -9 -1 -33 -6 -55z m-4516 45
c-3 -5 -11 -10 -16 -10 -6 0 -7 5 -4 10 3 6 11 10 16 10 6 0 7 -4 4 -10z
m-706 -44 c15 -18 15 -18 -6 -7 -14 7 -23 21 -22 34 0 15 2 17 6 7 3 -8 13
-24 22 -34z m4211 40 c0 -3 -4 -8 -10 -11 -5 -3 -10 -1 -10 4 0 6 5 11 10 11
6 0 10 -2 10 -4z m-3873 -59 c8 -16 16 -48 17 -71 3 -56 23 -91 42 -75 8 6 12
20 9 30 -4 13 2 22 24 34 28 14 31 14 40 -4 9 -15 7 -20 -12 -25 -21 -6 -21
-7 9 -26 28 -18 34 -19 59 -6 35 18 61 11 43 -12 -11 -13 -10 -15 4 -9 12 4
25 -6 47 -40 17 -26 31 -51 31 -57 0 -6 -5 -3 -11 7 -9 15 -13 16 -25 6 -11
-9 -18 -9 -26 -1 -9 9 -8 12 4 12 25 0 28 13 9 38 -13 18 -30 24 -76 28 -33 3
-62 8 -65 12 -10 14 -42 13 -59 -2 -9 -8 -21 -12 -27 -8 -5 4 -29 45 -53 91
-30 60 -41 91 -36 109 5 20 8 22 21 11 8 -7 22 -26 31 -42z m3963 42 c0 -5 -4
-7 -10 -4 -5 3 -10 1 -10 -6 0 -7 -3 -10 -6 -6 -8 7 4 27 17 27 5 0 9 -5 9
-11z m-5354 -67 c-3 -3 -6 3 -6 14 0 16 -2 17 -10 4 -11 -17 -13 -5 -3 30 6
24 7 24 15 -9 5 -18 7 -36 4 -39z m1619 58 c-3 -5 -12 -7 -20 -3 -21 7 -19 13
6 13 11 0 18 -4 14 -10z m3675 -10 c6 -11 9 -20 7 -20 -2 0 -12 9 -22 20 -10
11 -13 20 -7 20 6 0 16 -9 22 -20z m115 10 c3 -5 1 -10 -4 -10 -6 0 -11 5 -11
10 0 6 2 10 4 10 3 0 8 -4 11 -10z m-5325 -20 c0 -5 -5 -10 -11 -10 -5 0 -7 5
-4 10 3 6 8 10 11 10 2 0 4 -4 4 -10z m2142 -4 c4 3 5 -9 4 -26 -2 -31 -21
-53 -40 -47 -19 6 -48 55 -41 68 6 9 10 9 19 -3 6 -8 20 -18 31 -22 16 -6 18
-5 8 5 -18 18 -17 45 0 30 8 -6 16 -8 19 -5z m2928 -1 c11 -13 10 -14 -4 -9
-9 3 -16 10 -16 15 0 13 6 11 20 -6z m-4200 -5 c0 -5 -4 -10 -10 -10 -5 0 -10
5 -10 10 0 6 5 10 10 10 6 0 10 -4 10 -10z m837 -2 c-2 -7 5 -26 16 -41 10
-16 16 -31 13 -34 -3 -4 -6 0 -6 8 -1 8 -8 3 -16 -11 l-15 -25 5 31 c3 17 1
35 -5 41 -5 5 -7 17 -3 26 7 19 18 23 11 5z m943 -9 c0 -6 -4 -7 -10 -4 -5 3
-10 11 -10 16 0 6 5 7 10 4 6 -3 10 -11 10 -16z m-1170 -21 c0 -12 -13 -9 -32
6 -26 19 -22 26 7 13 14 -7 25 -15 25 -19z m-515 -3 c-16 -13 -33 -24 -37 -25
-5 0 -8 -7 -8 -16 0 -14 -2 -14 -16 -3 -13 11 -13 14 -3 17 8 3 23 12 34 22
18 15 39 27 55 29 3 1 -8 -10 -25 -24z m4165 4 c0 -5 -4 -9 -10 -9 -5 0 -10 7
-10 16 0 8 5 12 10 9 6 -3 10 -10 10 -16z m-4220 1 c0 -5 -4 -10 -10 -10 -5 0
-10 5 -10 10 0 6 5 10 10 10 6 0 10 -4 10 -10z m5270 -19 c0 -11 -4 -23 -10
-26 -6 -4 -10 5 -10 19 0 14 5 26 10 26 6 0 10 -9 10 -19z m-6259 -13 c11 -21
11 -22 -4 -9 -10 7 -17 17 -17 22 0 15 9 10 21 -13z m5254 12 c3 -5 1 -10 -4
-10 -6 0 -11 5 -11 10 0 6 2 10 4 10 3 0 8 -4 11 -10z m-41 -16 c4 -10 1 -14
-6 -12 -15 5 -23 28 -10 28 5 0 13 -7 16 -16z m-5167 -14 c1 -11 -2 -20 -8
-20 -10 0 -12 23 -2 33 9 9 9 10 10 -13z m1994 -6 l24 -27 -32 17 c-18 9 -33
21 -33 26 0 17 16 11 41 -16z m432 12 c19 -15 23 -36 6 -36 -14 0 -50 20 -67
37 -11 11 -9 13 15 13 15 0 36 -7 46 -14z m2657 10 c0 -3 -4 -8 -10 -11 -5 -3
-10 -1 -10 4 0 6 5 11 10 11 6 0 10 -2 10 -4z m47 -2 c-3 -3 -12 -4 -19 -1 -8
3 -5 6 6 6 11 1 17 -2 13 -5z m-4127 -14 c0 -5 -4 -10 -10 -10 -5 0 -10 5 -10
10 0 6 5 10 10 10 6 0 10 -4 10 -10z m5187 -32 c-3 -8 -6 -5 -6 6 -1 11 2 17
5 13 3 -3 4 -12 1 -19z m-6219 -43 c0 -16 -2 -15 -8 5 -11 34 -11 60 0 35 5
-11 8 -29 8 -40z m1076 40 c-4 -8 -11 -15 -16 -15 -6 0 -5 6 2 15 7 8 14 15
16 15 2 0 1 -7 -2 -15z m44 -17 c11 -14 10 -18 -10 -29 -20 -11 -22 -10 -10 3
7 9 9 24 6 34 -8 20 -6 19 14 -8z m5087 -42 c-4 -20 -11 -36 -16 -36 -5 0 -4
12 1 26 15 38 12 48 -7 33 -15 -12 -16 -12 -10 4 4 10 7 24 7 30 0 7 7 5 16
-4 11 -12 14 -26 9 -53z m-1105 34 c0 -5 -4 -10 -10 -10 -5 0 -10 5 -10 10 0
6 5 10 10 10 6 0 10 -4 10 -10z m1056 -17 c-10 -10 -19 5 -10 18 6 11 8 11 12
0 2 -7 1 -15 -2 -18z m-2516 -72 c91 -40 175 -76 188 -81 28 -12 23 -21 -23
-49 l-36 -21 12 21 c8 15 8 24 0 32 -8 8 -11 8 -11 -1 0 -7 -6 -12 -14 -12 -8
0 -17 -6 -19 -12 -4 -9 -6 -10 -6 -1 -1 6 6 18 14 27 11 11 12 17 4 22 -7 4
-19 -1 -27 -12 -14 -18 -14 -18 -8 3 11 34 -10 36 -37 4 -30 -37 -44 -29 -17
9 22 32 25 40 10 40 -6 0 -19 -14 -30 -32 -16 -26 -20 -29 -26 -15 -3 10 -1
24 6 32 24 29 -2 30 -26 2 -13 -15 -24 -23 -24 -17 0 6 -4 8 -10 5 -14 -9 -12
2 6 29 8 13 11 27 6 30 -4 2 -16 -8 -26 -25 -9 -16 -21 -29 -27 -29 -14 0 -11
26 6 40 17 14 20 30 6 30 -5 0 -11 -9 -14 -20 -3 -11 -10 -20 -16 -20 -14 0
-14 17 -1 25 6 3 10 11 10 18 0 6 -8 0 -17 -13 -9 -14 -17 -26 -18 -28 -5 -6
-34 11 -30 18 2 4 -6 5 -19 3 -34 -7 -38 8 -14 46 16 24 26 32 42 28 12 -3 95
-37 186 -76z m-2570 65 c0 -2 -7 -9 -15 -16 -13 -11 -14 -10 -9 4 5 14 24 23
24 12z m755 -14 c-3 -3 -11 0 -18 7 -9 10 -8 11 6 5 10 -3 15 -9 12 -12z m64
-6 c14 -15 18 -26 12 -30 -6 -4 -17 7 -26 24 -19 36 -16 38 14 6z m3206 14 c3
-5 1 -10 -4 -10 -6 0 -11 5 -11 10 0 6 2 10 4 10 3 0 8 -4 11 -10z m-5088 -32
c-3 -8 -6 -5 -6 6 -1 11 2 17 5 13 3 -3 4 -12 1 -19z m5052 0 c-16 -31 -16
-31 -23 -13 -3 9 -2 13 4 10 6 -3 10 1 10 9 0 9 5 16 10 16 7 0 7 -8 -1 -22z
m1097 -6 c-17 -16 -18 -16 -5 5 7 12 15 20 18 17 3 -2 -3 -12 -13 -22z m-6106
3 c0 -8 -4 -15 -10 -15 -5 0 -7 7 -4 15 4 8 8 15 10 15 2 0 4 -7 4 -15z m994
-6 c4 6 11 11 17 11 5 0 -10 -20 -33 -45 -28 -30 -44 -41 -46 -31 -2 7 -11 13
-20 11 -9 -1 -12 0 -6 2 6 2 17 15 24 28 7 13 17 22 22 19 5 -3 1 -12 -9 -19
-10 -7 -15 -17 -11 -21 12 -12 47 26 41 44 -4 13 -3 14 5 3 7 -9 12 -10 16 -2z
m461 -8 c-3 -5 3 -12 12 -14 14 -4 13 -5 -4 -6 -12 0 -25 -5 -28 -11 -4 -6
-11 -5 -19 2 -11 10 -9 15 8 24 26 15 39 17 31 5z m-1488 -33 c-3 -7 -5 -2 -5
12 0 14 2 19 5 13 2 -7 2 -19 0 -25z m6167 -6 c-4 -18 -11 -32 -16 -32 -6 0
-7 8 -3 18 4 9 10 25 12 35 9 29 14 13 7 -21z m-5081 -7 c-7 -21 -12 -19 -10
4 0 11 5 18 9 15 4 -3 5 -11 1 -19z m-49 -21 c-15 -16 -24 -22 -19 -14 12 23
38 51 42 46 2 -2 -8 -17 -23 -32z m4022 10 c-4 -11 -2 -15 8 -11 15 6 36 -11
36 -27 0 -6 -5 -3 -11 6 -5 9 -16 15 -23 12 -16 -6 -30 11 -21 26 10 16 18 12
11 -6z m-5006 -25 c0 -4 -5 -11 -11 -15 -6 -3 -9 -15 -6 -25 3 -11 1 -16 -5
-13 -5 3 -6 19 -3 35 5 22 3 29 -9 29 -9 0 -16 4 -16 10 0 6 10 5 25 -2 14 -6
25 -15 25 -19z m5030 -96 c0 -6 6 -13 13 -16 6 -2 9 -7 6 -11 -3 -4 -26 19
-50 51 -64 83 -69 95 -16 38 25 -27 46 -55 47 -62z m1060 62 c-6 -15 -13 -25
-17 -21 -3 3 0 17 7 31 17 32 24 26 10 -10z m-5086 -5 c6 0 23 8 36 17 l25 17
-20 -23 c-13 -15 -27 -21 -43 -18 -13 2 -30 -2 -38 -10 -20 -20 -18 -7 4 22
12 16 18 19 20 9 2 -8 9 -14 16 -14z m1826 20 c0 -5 7 -10 15 -10 8 0 15 4 15
10 0 5 11 9 25 8 23 -2 36 -16 18 -19 -80 -12 -140 -6 -112 12 19 12 39 11 39
-1z m2090 0 c0 -5 -2 -10 -4 -10 -3 0 -8 5 -11 10 -3 6 -1 10 4 10 6 0 11 -4
11 -10z m125 -17 c21 -24 26 -26 35 -13 11 17 13 10 4 -14 -9 -23 -16 -20 -47
19 -33 41 -27 47 8 8z m-1420 -3 c3 -5 1 -10 -4 -10 -6 0 -11 5 -11 10 0 6 2
10 4 10 3 0 8 -4 11 -10z m-3619 -52 c1 -36 0 -39 -7 -19 -8 19 -4 61 4 61 1
0 3 -19 3 -42z m1061 36 c-3 -3 -12 -4 -19 -1 -8 3 -5 6 6 6 11 1 17 -2 13 -5z
m-49 -11 c-10 -2 -26 -2 -35 0 -10 3 -2 5 17 5 19 0 27 -2 18 -5z m3902 -8
c-7 -8 -17 -12 -23 -8 -6 4 -3 9 9 14 27 11 28 11 14 -6z m-3850 -16 c0 -5 -7
-9 -16 -9 -8 0 -13 -4 -10 -8 2 -4 1 -14 -3 -21 -6 -9 -11 -10 -15 -2 -4 6 -2
11 3 11 6 0 10 3 9 8 0 4 2 15 6 24 8 18 26 16 26 -3z m1545 3 c-3 -3 -11 0
-18 7 -9 10 -8 11 6 5 10 -3 15 -9 12 -12z m2367 -16 c23 -28 25 -35 12 -40
-9 -3 -12 -2 -8 5 3 6 -6 24 -22 40 -15 16 -24 29 -18 29 5 0 21 -15 36 -34z
m1085 12 c-3 -8 -6 -5 -6 6 -1 11 2 17 5 13 3 -3 4 -12 1 -19z m-5067 -18 c0
-5 -4 -10 -10 -10 -5 0 -10 5 -10 10 0 6 5 10 10 10 6 0 10 -4 10 -10z m4093
-18 c-3 -12 -9 -19 -14 -16 -5 3 -3 14 3 24 15 24 19 21 11 -8z m-130 4 c4
-10 1 -13 -8 -9 -8 3 -12 9 -9 14 7 12 11 11 17 -5z m1088 -14 c-6 -11 -7 -23
-3 -27 4 -5 1 -5 -5 -1 -16 9 -17 28 -1 44 16 16 22 8 9 -16z m-1214 -16 c-19
-25 -23 -36 -14 -45 8 -8 8 -11 0 -11 -24 0 -24 22 -1 55 12 19 27 35 32 35 4
0 -3 -15 -17 -34z m-2331 -3 c-7 -7 -26 7 -26 19 0 6 6 6 15 -2 9 -7 13 -15
11 -17z m2394 18 c0 -5 -7 -12 -16 -15 -14 -5 -15 -4 -4 9 14 17 20 19 20 6z
m1120 -11 c0 -11 -4 -20 -9 -20 -5 0 -7 9 -4 20 3 11 7 20 9 20 2 0 4 -9 4
-20z m-5980 -30 c0 -5 -4 -10 -10 -10 -5 0 -10 5 -10 10 0 6 5 10 10 10 6 0
10 -4 10 -10z m1174 -5 c-4 -8 -10 -15 -16 -15 -5 0 -7 -8 -4 -18 4 -12 -2
-25 -16 -38 l-23 -19 18 21 c17 21 17 21 -33 21 -47 -1 -66 -10 -37 -19 6 -3
-2 -5 -18 -5 l-31 0 24 24 c13 13 28 21 33 18 5 -4 9 1 9 9 0 9 5 16 10 16 6
0 10 -7 10 -15 0 -23 24 -18 50 10 27 29 32 31 24 10z m-226 -15 c-7 -10 -14
-17 -17 -15 -4 4 18 35 25 35 2 0 -1 -9 -8 -20z m62 -5 c-13 -14 -26 -23 -28
-20 -7 6 29 44 42 44 5 1 -1 -10 -14 -24z m130 21 c0 -2 -7 -7 -16 -10 -8 -3
-12 -2 -9 4 6 10 25 14 25 6z m4830 -66 c-12 -33 -24 -60 -26 -60 -1 0 -2 15
-1 34 1 19 6 34 11 33 5 -1 14 13 19 31 6 18 12 30 15 27 3 -2 -5 -31 -18 -65z
m-5910 54 c0 -3 -7 -12 -15 -20 -12 -13 -15 -13 -15 -1 0 7 3 17 7 20 8 8 23
9 23 1z m5900 -15 c0 -6 -4 -7 -10 -4 -5 3 -10 11 -10 16 0 6 5 7 10 4 6 -3
10 -11 10 -16z m-5946 -4 c3 -8 1 -15 -4 -15 -6 0 -10 7 -10 15 0 8 2 15 4 15
2 0 6 -7 10 -15z m1171 -5 c3 -5 1 -10 -4 -10 -6 0 -11 5 -11 10 0 6 2 10 4
10 3 0 8 -4 11 -10z m105 0 c0 -5 -3 -9 -7 -8 -5 1 -19 -3 -33 -10 l-25 -13
24 20 c25 23 41 27 41 11z m-1215 -10 c3 -5 1 -10 -4 -10 -6 0 -11 5 -11 10 0
6 2 10 4 10 3 0 8 -4 11 -10z m-28 -32 c-3 -8 -6 -5 -6 6 -1 11 2 17 5 13 3
-3 4 -12 1 -19z m932 -11 c0 -21 -1 -21 -9 -2 -12 28 -12 37 0 30 6 -3 10 -16
9 -28z m3758 -29 c-2 -13 -4 -3 -4 22 0 25 2 35 4 23 2 -13 2 -33 0 -45z
m-4697 2 c0 -13 -1 -13 -10 0 -5 8 -10 22 -10 30 0 13 1 13 10 0 5 -8 10 -22
10 -30z m1137 25 c0 -8 -4 -15 -9 -15 -4 0 -8 7 -8 15 0 8 4 15 8 15 5 0 9 -7
9 -15z m3519 -22 c-10 -10 -19 5 -10 18 6 11 8 11 12 0 2 -7 1 -15 -2 -18z
m-3462 8 c3 -4 -6 -6 -19 -3 -14 2 -25 6 -25 8 0 8 39 4 44 -5z m-1174 -31
c-6 -12 -14 -20 -17 -17 -2 3 1 14 8 26 17 26 24 19 9 -9z m4697 -2 c-3 -7 -5
-2 -5 12 0 14 2 19 5 13 2 -7 2 -19 0 -25z m-3532 2 c-3 -5 -10 -10 -16 -10
-5 0 -9 5 -9 10 0 6 7 10 16 10 8 0 12 -4 9 -10z m4712 -14 c-2 -6 -12 -13
-23 -15 -15 -3 -16 -1 -6 11 6 8 9 18 5 22 -4 4 1 4 10 0 10 -3 16 -12 14 -18z
m-4709 -15 c-13 -15 -25 -27 -27 -25 -4 4 39 54 47 54 2 0 -7 -13 -20 -29z
m3482 4 c0 -14 -2 -25 -4 -25 -2 0 -6 11 -8 25 -3 14 -1 25 3 25 5 0 9 -11 9
-25z m-3555 -6 c11 -16 1 -19 -13 -3 -7 8 -8 14 -3 14 5 0 13 -5 16 -11z
m-1045 -21 c0 -18 -2 -20 -9 -8 -6 8 -7 18 -5 22 9 14 14 9 14 -14z m-25 -18
c9 -16 11 -30 6 -30 -5 0 -14 14 -20 30 -5 17 -8 30 -6 30 3 0 11 -13 20 -30z
m4690 20 c3 -5 1 -10 -4 -10 -6 0 -11 5 -11 10 0 6 2 10 4 10 3 0 8 -4 11 -10z
m1124 -21 c1 8 4 12 7 9 3 -4 -2 -19 -10 -35 -16 -28 -16 -28 -14 -3 2 16 -2
24 -10 22 -10 -2 -10 2 -1 20 l13 23 7 -25 c4 -14 7 -19 8 -11z m-1252 -1 c-3
-8 -6 -5 -6 6 -1 11 2 17 5 13 3 -3 4 -12 1 -19z m-3357 7 c0 -2 -10 -9 -22
-15 -22 -11 -22 -10 -4 4 21 17 26 19 26 11z m3460 -14 c0 -10 -9 -21 -20 -24
-13 -3 -20 0 -20 9 0 8 6 11 15 8 9 -4 15 0 15 10 0 9 2 16 5 16 3 0 5 -8 5
-19z m-3575 -20 c-6 -5 -25 10 -25 20 0 5 6 4 14 -3 8 -7 12 -15 11 -17z
m3604 -21 c1 -13 0 -13 -9 0 -5 8 -9 24 -9 35 l0 20 9 -20 c5 -11 9 -27 9 -35z
m-3639 9 c0 -5 5 -7 12 -3 7 4 8 3 4 -4 -10 -16 -23 -15 -30 3 -3 8 -1 15 4
15 6 0 10 -5 10 -11z m194 -6 c-6 -2 -9 -18 -7 -36 l3 -32 -10 29 c-9 29 5 65
19 50 3 -4 1 -8 -5 -11z m3244 -14 c-3 -8 -7 -3 -11 10 -4 17 -3 21 5 13 5 -5
8 -16 6 -23z m86 -24 c4 -34 3 -43 -3 -30 -9 19 -15 93 -7 84 2 -2 6 -26 10
-54z m1193 33 c-3 -8 -6 -5 -6 6 -1 11 2 17 5 13 3 -3 4 -12 1 -19z m-5736 3
c-12 -8 -13 -15 -3 -38 11 -26 11 -27 -3 -9 -20 27 -19 56 3 56 14 0 14 -2 3
-9z m30 -34 c-8 -8 -11 -5 -11 9 0 27 14 41 18 19 2 -9 -1 -22 -7 -28z m1104
33 c-3 -5 -12 -10 -18 -10 -7 0 -6 4 3 10 19 12 23 12 15 0z m-35 -43 c-10 -9
-14 -9 -17 1 -8 20 -26 14 -20 -7 3 -14 1 -18 -9 -14 -8 3 -14 9 -14 13 0 15
28 30 44 24 12 -5 15 -2 10 12 -5 18 -5 18 6 1 9 -15 9 -22 0 -30z m3509 -25
c1 -18 6 -42 12 -54 6 -11 8 -22 5 -25 -9 -9 -23 37 -30 97 -4 37 -3 48 3 35
5 -11 10 -35 10 -53z m-189 14 c0 -26 -6 -18 -14 19 -5 22 -4 26 4 15 5 -8 10
-24 10 -34z m1299 -40 c-22 -42 -43 -76 -45 -76 -3 0 0 9 6 20 6 11 8 25 5 30
-4 6 1 13 9 16 9 3 16 10 16 14 0 10 44 79 48 75 1 -1 -16 -37 -39 -79z
m-4551 52 c-3 -7 -13 -15 -24 -17 -16 -3 -17 -1 -5 13 16 19 34 21 29 4z
m3322 2 c0 -5 -2 -10 -4 -10 -3 0 -8 5 -11 10 -3 6 -1 10 4 10 6 0 11 -4 11
-10z m-23 -32 c-3 -8 -6 -5 -6 6 -1 11 2 17 5 13 3 -3 4 -12 1 -19z m-3467 2
c0 -5 -5 -10 -11 -10 -5 0 -7 5 -4 10 3 6 8 10 11 10 2 0 4 -4 4 -10z m-956
-16 c30 -29 19 -33 -14 -4 -13 11 -18 20 -12 20 6 0 18 -7 26 -16z m1068 -9
c-2 -14 -6 -25 -8 -25 -2 0 -4 11 -4 25 0 14 4 25 9 25 4 0 6 -11 3 -25z m80
-9 c9 6 9 3 -1 -9 -15 -18 -26 -23 -16 -7 3 6 1 10 -4 10 -6 0 -11 10 -10 23
l0 22 10 -23 c6 -15 13 -21 21 -16z m89 7 c-8 -15 -10 -15 -11 -2 0 17 10 32
18 25 2 -3 -1 -13 -7 -23z m-246 7 c-3 -5 -12 -10 -18 -10 -7 0 -6 4 3 10 19
12 23 12 15 0z m96 -36 c-5 -16 -10 -21 -10 -12 -1 18 10 51 15 45 2 -1 -1
-16 -5 -33z m3416 -11 c-3 -10 -5 -2 -5 17 0 19 2 27 5 18 2 -10 2 -26 0 -35z
m-3207 33 c0 -2 -7 -7 -16 -10 -8 -3 -12 -2 -9 4 6 10 25 14 25 6z m3105 -6
c3 -6 -1 -7 -9 -4 -18 7 -21 14 -7 14 6 0 13 -4 16 -10z m-4367 -19 c7 10 17
19 22 19 6 0 2 -10 -10 -22 -25 -28 -26 -42 0 -35 21 6 28 -9 8 -16 -10 -3
-10 -7 1 -20 7 -10 9 -17 5 -17 -10 0 -24 21 -57 80 -19 34 -19 35 0 14 19
-21 20 -21 31 -3z m4225 -5 c-10 -13 -20 -22 -22 -20 -4 4 29 44 36 44 2 0 -4
-11 -14 -24z m-3084 -15 c-7 -10 -21 -24 -32 -30 -16 -11 -22 -10 -35 3 -10 9
-11 16 -5 16 6 0 13 -6 16 -12 3 -9 14 -4 33 15 34 32 38 34 23 8z m-119 -1
c0 -5 -4 -10 -10 -10 -5 0 -10 5 -10 10 0 6 5 10 10 10 6 0 10 -4 10 -10z
m143 -5 c-3 -9 -8 -14 -10 -11 -3 3 -2 9 2 15 9 16 15 13 8 -4z m3277 -15 c0
-11 -4 -20 -10 -20 -5 0 -10 9 -10 20 0 11 5 20 10 20 6 0 10 -9 10 -20z
m1113 0 c-7 -28 -23 -36 -23 -11 0 10 6 22 13 24 6 3 13 6 14 6 0 1 -1 -8 -4
-19z m-4509 -5 c3 -9 0 -15 -9 -15 -9 0 -12 6 -9 15 4 8 7 15 9 15 2 0 5 -7 9
-15z m-1003 -18 c-10 -9 -11 -8 -5 6 3 10 9 15 12 12 3 -3 0 -11 -7 -18z
m4166 -43 c16 -13 16 -14 1 -8 -11 4 -18 1 -19 -7 -2 -18 -17 40 -17 66 0 13
3 10 8 -8 5 -16 17 -35 27 -43z m276 51 c4 -8 2 -17 -3 -20 -6 -4 -10 3 -10
14 0 25 6 27 13 6z m1092 -18 c-4 -15 -14 -32 -23 -39 -14 -10 -15 -10 -5 1 6
7 9 20 6 27 -3 8 0 14 6 14 6 0 11 8 11 17 0 9 2 14 5 11 4 -3 3 -17 0 -31z
m-4441 8 c-7 -16 -24 -21 -24 -6 0 8 7 13 27 20 1 1 0 -6 -3 -14z m4382 -22
c-11 -11 -17 4 -9 23 7 18 8 18 11 1 2 -10 1 -21 -2 -24z m-4255 -6 c-10 -9
-11 -8 -5 6 3 10 9 15 12 12 3 -3 0 -11 -7 -18z m4186 -9 c-3 -8 -6 -5 -6 6
-1 11 2 17 5 13 3 -3 4 -12 1 -19z m-5403 -3 c-4 -8 -2 -15 4 -15 5 0 12 -11
14 -25 6 -31 -6 -24 -25 15 -14 27 -13 31 10 39 1 1 0 -6 -3 -14z m1146 11 c0
-3 -4 -8 -10 -11 -5 -3 -10 -1 -10 4 0 6 5 11 10 11 6 0 10 -2 10 -4z m4296
-23 c-10 -10 -19 5 -10 18 6 11 8 11 12 0 2 -7 1 -15 -2 -18z m-4121 -11 c-6
-7 -34 11 -29 19 3 5 11 3 19 -4 7 -6 12 -13 10 -15z m2725 -3 c0 -6 -4 -7
-10 -4 -5 3 -10 11 -10 16 0 6 5 7 10 4 6 -3 10 -11 10 -16z m367 -1 c-3 -8
-6 -5 -6 6 -1 11 2 17 5 13 3 -3 4 -12 1 -19z m1068 12 c-3 -5 -10 -10 -16
-10 -5 0 -9 5 -9 10 0 6 7 10 16 10 8 0 12 -4 9 -10z m-4070 -20 c-3 -5 -11
-10 -16 -10 -6 0 -7 5 -4 10 3 6 11 10 16 10 6 0 7 -4 4 -10z m4066 -26 c-11
-15 -21 -23 -21 -18 0 14 31 56 37 50 3 -3 -4 -17 -16 -32z m-5401 14 c0 -5
-7 -16 -15 -24 -17 -17 -21 -39 -5 -29 6 3 7 -1 4 -10 -9 -22 -17 -11 -19 25
-1 17 2 27 8 23 6 -4 8 0 5 9 -4 9 0 15 8 15 8 0 14 -4 14 -9z m5380 4 c0 -13
-12 -22 -22 -16 -10 6 -1 24 13 24 5 0 9 -4 9 -8z m-1418 -34 c-8 -8 -9 -4 -5
13 4 13 8 18 11 10 2 -7 -1 -18 -6 -23z m-82 18 c0 -2 -8 -10 -17 -17 -16 -13
-17 -12 -4 4 13 16 21 21 21 13z m1469 -39 c1 -5 -3 -5 -9 -2 -5 3 -10 16 -9
28 0 21 1 21 9 2 5 -11 9 -24 9 -28z m-5304 13 c3 -5 -1 -10 -9 -10 -9 0 -16
5 -16 10 0 6 4 10 9 10 6 0 13 -4 16 -10z m-8 -52 c-3 -8 -6 -5 -6 6 -1 11 2
17 5 13 3 -3 4 -12 1 -19z m5273 -20 c-11 -11 -18 -23 -15 -29 3 -5 17 3 31
19 l25 27 -22 -32 c-18 -26 -25 -30 -40 -20 -17 10 -16 12 7 34 23 21 23 28 1
24 -5 -1 -6 3 -2 9 5 8 11 7 21 -1 13 -10 12 -15 -6 -31z m-5296 18 c-6 -15
25 -70 34 -61 7 7 31 -28 25 -38 -5 -8 -34 20 -60 60 -13 20 -12 53 1 53 3 0
3 -6 0 -14z m5252 -93 c-2 -31 -25 -78 -33 -69 -4 3 2 15 12 26 18 20 18 21
-1 35 -13 11 -14 14 -4 13 9 -2 14 4 14 14 -1 10 2 16 6 13 4 -3 7 -17 6 -32z
m28 2 c-4 -8 -10 -13 -15 -10 -4 3 -6 12 -3 20 4 8 10 13 15 10 4 -3 6 -12 3
-20z m-114 -148 c0 -2 -10 -12 -22 -23 l-23 -19 19 23 c18 21 26 27 26 19z
m-170 -190 c0 -2 -10 -12 -22 -23 l-23 -19 19 23 c18 21 26 27 26 19z m-120
-121 c-14 -13 -29 -21 -33 -19 -5 3 4 13 20 23 39 25 42 24 13 -4z m-4392 -37
c32 -39 23 -37 -19 7 -18 19 -27 32 -19 29 8 -4 25 -20 38 -36z m118 -100 c4
-8 1 -8 -14 0 -12 6 -24 16 -28 22 -4 8 -1 8 14 0 12 -6 24 -16 28 -22z m4133
8 c-13 -13 -26 -21 -29 -19 -5 4 38 42 48 42 3 0 -6 -10 -19 -23z m-4104 -17
c3 -5 1 -10 -4 -10 -6 0 -11 5 -11 10 0 6 2 10 4 10 3 0 8 -4 11 -10z m4055
-25 c-7 -8 -17 -15 -23 -15 -6 0 -2 7 9 15 25 19 30 19 14 0z m-4027 -12 c-3
-7 1 -13 9 -13 8 0 25 -12 39 -27 23 -25 22 -25 -23 5 -55 38 -63 48 -38 48
10 0 16 -6 13 -13z m3982 -23 c-3 -5 -27 -24 -53 -41 l-47 -31 40 40 c36 35
75 57 60 32z m-3879 -47 c1 -15 -3 -20 -13 -16 -12 5 -12 7 -1 14 11 7 10 11
-2 20 -13 9 -13 10 0 6 8 -2 15 -13 16 -24z m75 -32 l24 -20 -25 5 c-24 5 -24
5 -6 -10 11 -9 17 -16 13 -16 -6 0 -49 24 -67 38 -5 3 21 22 31 22 4 0 17 -9
30 -19z m3687 10 c10 -6 4 -14 -20 -33 -18 -13 -40 -28 -48 -32 -18 -9 26 31
49 44 14 9 14 11 1 20 -18 12 -1 13 18 1z m-3642 -78 c-7 -7 -26 7 -26 19 0 6
6 6 15 -2 9 -7 13 -15 11 -17z m3448 -16 c-7 -19 -34 -31 -34 -15 0 10 32 39
38 34 1 -2 0 -10 -4 -19z m87 3 c-22 -19 -41 -26 -41 -15 0 5 51 34 60 34 3 0
-6 -9 -19 -19z m-3491 -5 c7 -8 16 -15 21 -15 5 0 6 7 3 15 -4 10 0 15 12 15
9 0 14 -3 11 -7 -4 -3 -2 -12 3 -18 7 -9 6 -16 -2 -23 -10 -8 -22 -3 -48 19
-19 15 -30 29 -24 29 6 0 17 -7 24 -15z m3440 -11 c0 -3 -7 -12 -15 -20 -16
-17 -18 -14 -9 10 6 15 24 23 24 10z m-115 -14 c-3 -5 -12 -10 -18 -10 -7 0
-6 4 3 10 19 12 23 12 15 0z m11 -19 c-8 -12 20 -22 42 -14 14 5 13 3 -3 -10
-15 -11 -22 -12 -27 -4 -4 7 -8 8 -8 2 0 -5 -4 -3 -9 5 -9 13 -6 30 5 30 3 0
3 -4 0 -9z m-3261 -11 c3 -6 -1 -7 -9 -4 -18 7 -21 14 -7 14 6 0 13 -4 16 -10z
m126 -7 c13 -17 13 -17 -6 -3 -11 8 -22 16 -24 17 -2 2 0 3 6 3 6 0 17 -8 24
-17z m-66 -13 c-3 -5 -13 -7 -23 -5 -9 2 -19 4 -22 4 -3 1 1 5 9 10 16 10 44
3 36 -9z m86 -27 c13 -16 12 -17 -3 -4 -17 13 -22 21 -14 21 2 0 10 -8 17 -17z
m3046 10 c-4 -3 0 -11 9 -18 14 -9 12 -13 -13 -23 -25 -11 -26 -11 -10 2 12 9
14 16 7 21 -10 6 -5 25 7 25 4 0 3 -3 0 -7z m67 -5 c-3 -4 -12 -4 -21 -1 -12
5 -14 3 -8 -7 5 -9 4 -11 -4 -6 -16 10 -4 25 19 23 10 -1 17 -5 14 -9z m-3133
-24 c34 -21 43 -23 57 -13 16 12 16 12 1 -5 -16 -17 -18 -17 -55 3 -56 29 -72
41 -56 41 7 0 31 -12 53 -26z m109 -29 c11 -13 10 -14 -3 -10 -8 4 -18 2 -22
-4 -3 -6 0 -11 7 -11 8 0 23 -7 34 -15 17 -14 17 -14 -11 -3 -16 6 -37 18 -45
25 -12 11 -12 13 3 13 9 0 17 5 17 10 0 14 5 13 20 -5z m2906 1 c11 3 -10 -10
-45 -30 -36 -20 -66 -34 -69 -32 -2 2 -20 -7 -39 -20 -20 -13 -39 -24 -43 -24
-4 0 -25 -7 -46 -16 -22 -9 -39 -16 -39 -14 0 1 -13 -5 -29 -14 -16 -8 -35
-12 -44 -9 -10 4 -13 2 -8 -5 4 -7 4 -12 -1 -12 -4 0 -19 -3 -33 -6 -66 -14
110 63 188 83 17 4 20 8 11 19 -12 15 -4 34 14 34 9 0 9 -2 0 -8 -7 -5 -9 -13
-3 -21 6 -11 16 -8 46 17 20 17 42 28 47 25 15 -9 58 19 52 35 -4 12 -2 12 9
3 7 -6 22 -9 32 -5z m-2856 -26 c8 -5 11 -12 7 -16 -4 -4 -15 0 -24 9 -18 18
-8 23 17 7z m34 -39 c11 -4 15 -10 10 -13 -5 -2 -20 1 -34 8 -26 14 -8 18 24
5z m42 -20 c-3 -5 6 -12 20 -15 15 -4 24 -9 22 -12 -3 -2 -19 1 -37 7 -24 9
-29 14 -19 20 17 11 20 11 14 0z m2454 -1 c0 -5 -4 -10 -10 -10 -5 0 -10 5
-10 10 0 6 5 10 10 10 6 0 10 -4 10 -10z m31 -24 c-15 -18 -52 -25 -77 -15
-13 5 -7 8 23 8 23 1 45 6 48 11 3 6 9 10 12 10 3 0 0 -6 -6 -14z m-2363 -23
c-7 -9 -7 -13 2 -13 8 0 11 -3 8 -6 -4 -3 -17 2 -30 10 -14 9 -27 14 -30 10
-3 -3 -9 -1 -12 4 -3 6 10 9 33 8 30 -1 37 -4 29 -13z m62 13 c0 -3 -4 -8 -10
-11 -5 -3 -10 -1 -10 4 0 6 5 11 10 11 6 0 10 -2 10 -4z m2219 -20 c-2 -2 -15
-9 -29 -16 -23 -12 -24 -12 -11 3 7 10 20 17 29 17 8 0 13 -2 11 -4z m-2177
-38 c26 -4 52 -18 32 -18 -25 0 -84 22 -84 32 0 7 4 7 13 0 7 -6 25 -12 39
-14z m68 -23 c-7 -9 -15 -13 -19 -10 -3 3 1 10 9 15 21 14 24 12 10 -5z m85 5
c-3 -5 -11 -10 -16 -10 -6 0 -7 5 -4 10 3 6 11 10 16 10 6 0 7 -4 4 -10z
m1965 3 c-8 -3 -24 -10 -35 -15 -20 -9 -20 -9 -1 6 11 9 27 16 35 15 14 0 14
-1 1 -6z m-1908 -24 c-47 -10 -49 -16 -11 -28 19 -5 27 -10 18 -10 -21 -1 -81
19 -94 32 -7 7 -6 7 3 3 16 -9 65 1 58 12 -3 5 9 6 27 3 l32 -5 -33 -7z m1695
15 c-3 -3 -12 -4 -19 -1 -8 3 -5 6 6 6 11 1 17 -2 13 -5z m70 0 c-3 -3 -12 -4
-19 -1 -8 3 -5 6 6 6 11 1 17 -2 13 -5z m83 -13 c0 -11 -178 -56 -187 -47 -4
3 3 6 15 6 11 0 24 5 27 10 4 6 12 10 18 9 21 -3 97 13 103 22 7 12 24 12 24
0z m-97 -8 c-7 -2 -21 -2 -30 0 -10 3 -4 5 12 5 17 0 24 -2 18 -5z m-1690 -40
c-7 -2 -19 -2 -25 0 -7 3 -2 5 12 5 14 0 19 -2 13 -5z m122 -27 l40 -16 -50 6
c-27 4 -61 13 -75 20 -25 14 -25 14 10 10 19 -3 53 -12 75 -20z m1455 13 c0
-6 -7 -8 -16 -5 -9 4 -22 1 -30 -5 -7 -6 -21 -9 -31 -6 -14 4 -13 5 5 6 13 0
21 5 18 9 -2 4 9 9 25 10 16 1 29 -3 29 -9z m-189 -17 c-7 -2 -18 1 -23 6 -8
8 -4 9 13 5 13 -4 18 -8 10 -11z m69 -12 c-14 -4 -38 -8 -55 -8 l-30 0 30 8
c17 4 41 8 55 8 l25 0 -25 -8z m-1185 -10 l50 -7 -50 0 c-27 -1 -63 3 -80 7
l-30 8 30 0 c17 0 53 -3 80 -8z m1090 0 c4 -6 -7 -10 -27 -10 -25 0 -29 3 -18
10 19 13 37 13 45 0z"/>
<path d="M2320 5329 c0 -16 4 -28 9 -25 8 5 3 56 -5 56 -2 0 -4 -14 -4 -31z"/>
<path d="M1940 4929 c0 -5 5 -7 10 -4 6 3 10 8 10 11 0 2 -4 4 -10 4 -5 0 -10
-5 -10 -11z"/>
<path d="M848 2913 c7 -3 16 -2 19 1 4 3 -2 6 -13 5 -11 0 -14 -3 -6 -6z"/>
<path d="M5120 5749 c0 -5 5 -7 10 -4 6 3 10 8 10 11 0 2 -4 4 -10 4 -5 0 -10
-5 -10 -11z"/>
<path d="M5395 5510 c-3 -5 -1 -10 4 -10 6 0 11 5 11 10 0 6 -2 10 -4 10 -3 0
-8 -4 -11 -10z"/>
<path d="M3128 5223 c7 -3 16 -2 19 1 4 3 -2 6 -13 5 -11 0 -14 -3 -6 -6z"/>
<path d="M4108 5123 c7 -3 16 -2 19 1 4 3 -2 6 -13 5 -11 0 -14 -3 -6 -6z"/>
<path d="M4295 5110 c-3 -5 -1 -10 4 -10 6 0 11 5 11 10 0 6 -2 10 -4 10 -3 0
-8 -4 -11 -10z"/>
<path d="M4320 5060 c0 -5 5 -10 10 -10 6 0 10 5 10 10 0 6 -4 10 -10 10 -5 0
-10 -4 -10 -10z"/>
<path d="M3028 5103 c7 -3 16 -2 19 1 4 3 -2 6 -13 5 -11 0 -14 -3 -6 -6z"/>
<path d="M5781 5051 c-9 -6 -10 -11 -2 -15 13 -8 31 1 31 15 0 11 -11 11 -29
0z"/>
<path d="M3880 4710 c0 -5 5 -10 10 -10 6 0 10 5 10 10 0 6 -4 10 -10 10 -5 0
-10 -4 -10 -10z"/>
<path d="M3485 4630 c3 -5 8 -10 11 -10 2 0 4 5 4 10 0 6 -5 10 -11 10 -5 0
-7 -4 -4 -10z"/>
<path d="M4635 4590 c3 -5 8 -10 11 -10 2 0 4 5 4 10 0 6 -5 10 -11 10 -5 0
-7 -4 -4 -10z"/>
<path d="M3508 4563 c7 -3 16 -2 19 1 4 3 -2 6 -13 5 -11 0 -14 -3 -6 -6z"/>
<path d="M4645 4550 c-4 -6 -4 -10 -1 -10 2 0 11 -3 20 -6 9 -3 16 -2 16 4 0
14 -28 23 -35 12z"/>
<path d="M3321 4516 c2 -2 22 -6 44 -9 28 -5 34 -4 20 3 -19 8 -73 14 -64 6z"/>
<path d="M3940 4485 c0 -8 4 -15 10 -15 5 0 7 7 4 15 -4 8 -8 15 -10 15 -2 0
-4 -7 -4 -15z"/>
<path d="M3283 4477 c4 -11 10 -30 13 -43 5 -19 18 -27 63 -40 164 -46 288
-94 243 -94 -12 0 -34 -49 -27 -61 10 -15 45 -10 45 6 0 8 -4 15 -10 15 -5 0
-10 7 -10 15 0 12 4 14 19 5 18 -9 20 -7 18 27 -3 33 -6 38 -42 49 -219 69
-253 81 -284 109 -25 22 -33 25 -28 12z"/>
<path d="M3870 4475 c0 -8 5 -15 10 -15 6 0 10 7 10 15 0 8 -4 15 -10 15 -5 0
-10 -7 -10 -15z"/>
<path d="M3771 4324 c13 -16 29 -19 29 -5 0 5 -9 11 -21 14 -16 4 -18 3 -8 -9z"/>
<path d="M3430 4226 c0 -7 12 -21 26 -31 20 -13 28 -14 40 -4 20 16 18 29 -5
29 -11 0 -23 5 -26 10 -9 15 -35 12 -35 -4z"/>
<path d="M4820 4232 c0 -5 3 -12 6 -15 4 -4 8 -19 9 -35 4 -44 55 -111 55 -72
0 6 -4 10 -9 10 -5 0 -9 10 -9 23 0 44 -9 79 -23 88 -18 11 -29 11 -29 1z"/>
<path d="M3246 4208 c1 -13 3 -26 3 -29 2 -12 50 -16 54 -5 9 23 -12 56 -36
56 -19 0 -23 -5 -21 -22z"/>
<path d="M3201 4157 c-19 -19 -12 -31 38 -62 60 -37 76 -38 76 -5 0 21 -4 25
-28 22 -21 -2 -30 3 -38 22 -14 30 -32 39 -48 23z"/>
<path d="M3202 4088 c6 -17 36 -34 44 -25 4 4 -1 14 -12 22 -23 18 -37 19 -32
3z"/>
<path d="M4676 4016 c3 -9 12 -16 20 -16 8 0 13 -5 12 -12 -3 -13 58 -22 82
-12 10 4 0 12 -30 24 -80 31 -91 33 -84 16z"/>
<path d="M4661 3791 c-12 -22 -5 -31 22 -31 19 0 19 1 4 18 -10 10 -14 22 -10
25 3 4 3 7 0 7 -3 0 -11 -8 -16 -19z"/>
<path d="M4410 4956 c0 -2 7 -7 16 -10 8 -3 12 -2 9 4 -6 10 -25 14 -25 6z"/>
<path d="M4500 4919 c0 -5 5 -7 10 -4 6 3 10 8 10 11 0 2 -4 4 -10 4 -5 0 -10
-5 -10 -11z"/>
<path d="M3095 3880 c3 -5 10 -10 16 -10 5 0 9 5 9 10 0 6 -7 10 -16 10 -8 0
-12 -4 -9 -10z"/>
<path d="M3650 3866 c0 -2 7 -6 15 -10 8 -3 15 -1 15 4 0 6 -7 10 -15 10 -8 0
-15 -2 -15 -4z"/>
<path d="M3390 3760 c0 -5 5 -10 10 -10 6 0 10 5 10 10 0 6 -4 10 -10 10 -5 0
-10 -4 -10 -10z"/>
<path d="M4537 3714 c7 -3 10 -11 7 -19 -4 -9 12 -23 45 -40 28 -14 51 -22 51
-18 -1 19 -88 85 -109 82 -3 0 -1 -3 6 -5z"/>
<path d="M4650 3630 c0 -5 5 -10 10 -10 6 0 10 5 10 10 0 6 -4 10 -10 10 -5 0
-10 -4 -10 -10z"/>
<path d="M3217 3319 c7 -7 15 -10 18 -7 3 3 -2 9 -12 12 -14 6 -15 5 -6 -5z"/>
<path d="M3362 3153 c-19 -8 -4 -22 18 -16 11 3 17 9 14 14 -6 10 -12 10 -32
2z"/>
<path d="M3590 3065 c0 -8 2 -15 4 -15 2 0 6 7 10 15 3 8 1 15 -4 15 -6 0 -10
-7 -10 -15z"/>
<path d="M3813 2991 c0 -10 7 -17 13 -14 7 3 10 11 7 19 -8 20 -22 17 -20 -5z"/>
<path d="M3092 2920 c-32 -43 -43 -75 -29 -89 17 -17 29 -13 22 8 -4 13 0 20
15 24 17 4 20 10 14 33 -6 22 -4 26 8 22 8 -4 20 2 26 13 22 34 -31 24 -56
-11z"/>
<path d="M3262 2928 c-5 -7 -29 -51 -52 -97 l-41 -83 49 -50 49 -49 19 28 c22
33 58 95 81 139 15 30 14 33 -3 57 -18 23 -73 67 -86 67 -3 0 -10 -6 -16 -12z
m48 -63 c0 -8 -4 -15 -10 -15 -5 0 -7 7 -4 15 4 8 8 15 10 15 2 0 4 -7 4 -15z"/>
<path d="M3171 2874 c-30 -46 -42 -92 -21 -79 14 9 63 115 57 122 -3 3 -20
-16 -36 -43z"/>
<path d="M3502 2691 c-44 -82 -47 -91 -33 -91 9 0 85 159 79 165 -2 2 -23 -31
-46 -74z"/>
<path d="M3567 2708 c-31 -53 -59 -120 -53 -126 5 -4 35 50 68 122 25 54 16
56 -15 4z"/>
<path d="M3632 2718 c-8 -11 -66 -119 -80 -150 -2 -5 0 -8 5 -8 5 0 27 35 48
78 21 42 40 80 42 85 6 12 -4 8 -15 -5z"/>
<path d="M3801 2562 c-23 -45 -37 -82 -32 -82 13 0 84 137 79 152 -2 6 -23
-25 -47 -70z"/>
<path d="M3844 2540 c-23 -44 -36 -80 -30 -80 10 0 86 139 86 155 0 21 -21 -8
-56 -75z"/>
<path d="M3895 2528 c-44 -80 -51 -98 -38 -98 5 0 24 30 43 68 45 88 51 102
42 102 -4 0 -26 -33 -47 -72z"/>
<path d="M3622 2458 c3 -7 13 -15 22 -16 12 -3 17 1 14 10 -3 7 -13 15 -22 16
-12 3 -17 -1 -14 -10z"/>
<path d="M4610 2875 c0 -8 2 -15 4 -15 2 0 6 7 10 15 3 8 1 15 -4 15 -6 0 -10
-7 -10 -15z"/>
<path d="M3055 2550 c3 -5 8 -10 11 -10 2 0 4 5 4 10 0 6 -5 10 -11 10 -5 0
-7 -4 -4 -10z"/>
<path d="M3124 2525 c-17 -27 -16 -39 2 -27 12 8 29 52 20 52 -3 0 -13 -11
-22 -25z"/>
<path d="M3155 2521 c-3 -5 -1 -12 4 -15 5 -3 11 1 15 9 6 16 -9 21 -19 6z"/>
<path d="M3249 2473 c-12 -15 -12 -16 3 -10 13 4 15 2 11 -11 -6 -15 -5 -15
10 -3 13 10 15 17 6 27 -14 17 -14 17 -30 -3z"/>
<path d="M3353 2415 c-6 -14 -8 -27 -4 -30 7 -4 31 36 31 50 0 14 -17 1 -27
-20z"/>
<path d="M3401 2402 c-13 -25 -14 -32 -2 -32 9 0 23 41 16 48 -2 2 -8 -5 -14
-16z"/>
<path d="M1340 580 c0 -5 5 -10 10 -10 6 0 10 5 10 10 0 6 -4 10 -10 10 -5 0
-10 -4 -10 -10z"/>
<path d="M1500 469 c0 -5 5 -7 10 -4 6 3 10 8 10 11 0 2 -4 4 -10 4 -5 0 -10
-5 -10 -11z"/>
</g>
</svg>
