<svg width="25" height="24" viewBox="0 0 25 24" fill="none" xmlns="http://www.w3.org/2000/svg">
<path fill-rule="evenodd" clip-rule="evenodd" d="M16.1432 21.03C16.0432 21.71 15.4232 22.25 14.6832 22.25H10.9832C10.2432 22.25 9.62324 21.71 9.53324 20.98L9.26324 19.09C8.99324 18.95 8.73324 18.8 8.47324 18.63L6.67324 19.35C5.97324 19.61 5.20324 19.32 4.86324 18.7L3.03324 15.53C2.68324 14.87 2.83324 14.09 3.39324 13.65L4.92324 12.46C4.91324 12.31 4.90324 12.16 4.90324 12C4.90324 11.85 4.91324 11.69 4.92324 11.54L3.40324 10.35C2.81324 9.90001 2.66324 9.09001 3.03324 8.47001L4.88324 5.28001C5.22324 4.66001 5.99324 4.38001 6.67324 4.65001L8.48324 5.38001C8.74324 5.21001 9.00324 5.06001 9.26324 4.92001L9.53324 3.01001C9.62324 2.31001 10.2432 1.76001 10.9732 1.76001H14.6732C15.4132 1.76001 16.0332 2.30001 16.1232 3.03001L16.3932 4.92001C16.6632 5.06001 16.9232 5.21001 17.1832 5.38001L18.9832 4.66001C19.6932 4.40001 20.4632 4.69001 20.8032 5.31001L22.6432 8.49001C23.0032 9.15001 22.8432 9.93001 22.2832 10.37L20.7632 11.56C20.7732 11.71 20.7832 11.86 20.7832 12.02C20.7832 12.18 20.7732 12.33 20.7632 12.48L22.2832 13.67C22.8432 14.12 23.0032 14.9 22.6532 15.53L20.7932 18.75C20.4532 19.37 19.6832 19.65 18.9932 19.38L17.1932 18.66C16.9332 18.83 16.6732 18.98 16.4132 19.12L16.1432 21.03ZM11.4532 20.25H14.2132L14.5832 17.7L15.1132 17.48C15.5532 17.3 15.9932 17.04 16.4532 16.7L16.9032 16.36L19.2832 17.32L20.6632 14.92L18.6332 13.34L18.7032 12.78L18.7064 12.7531C18.7353 12.5027 18.7632 12.2607 18.7632 12C18.7632 11.73 18.7332 11.47 18.7032 11.22L18.6332 10.66L20.6632 9.08001L19.2732 6.68001L16.8832 7.64001L16.4332 7.29001C16.0132 6.97001 15.5632 6.71001 15.1032 6.52001L14.5832 6.30001L14.2132 3.75001H11.4532L11.0832 6.30001L10.5532 6.51001C10.1132 6.70001 9.67324 6.95001 9.21324 7.30001L8.76324 7.63001L6.38324 6.68001L4.99324 9.07001L7.02324 10.65L6.95324 11.21C6.92324 11.47 6.89324 11.74 6.89324 12C6.89324 12.26 6.91324 12.53 6.95324 12.78L7.02324 13.34L4.99324 14.92L6.37324 17.32L8.76324 16.36L9.21324 16.71C9.64324 17.04 10.0732 17.29 10.5432 17.48L11.0732 17.7L11.4532 20.25ZM16.3332 12C16.3332 13.933 14.7662 15.5 12.8332 15.5C10.9002 15.5 9.33324 13.933 9.33324 12C9.33324 10.067 10.9002 8.50001 12.8332 8.50001C14.7662 8.50001 16.3332 10.067 16.3332 12Z" fill="#131F00"/>
</svg>
