<svg width="25" height="24" viewBox="0 0 25 24" fill="none" xmlns="http://www.w3.org/2000/svg">
<g id="Icon">
<path id="Vector" d="M18.8335 6H16.8335C16.8335 3.79 15.0435 2 12.8335 2C10.6235 2 8.8335 3.79 8.8335 6H6.8335C5.7335 6 4.8335 6.9 4.8335 8V20C4.8335 21.1 5.7335 22 6.8335 22H18.8335C19.9335 22 20.8335 21.1 20.8335 20V8C20.8335 6.9 19.9335 6 18.8335 6ZM12.8335 4C13.9335 4 14.8335 4.9 14.8335 6H10.8335C10.8335 4.9 11.7335 4 12.8335 4ZM18.8335 20H6.8335V8H8.8335V10C8.8335 10.55 9.2835 11 9.8335 11C10.3835 11 10.8335 10.55 10.8335 10V8H14.8335V10C14.8335 10.55 15.2835 11 15.8335 11C16.3835 11 16.8335 10.55 16.8335 10V8H18.8335V20Z" fill="#45483D"/>
</g>
</svg>
